<?xml version="1.0" encoding="utf-8"?>
<!-- Generator: Adobe Illustrator 18.1.0, SVG Export Plug-In . SVG Version: 6.00 Build 0)  -->
<svg version="1.1" id="Layer_1" xmlns="http://www.w3.org/2000/svg" xmlns:xlink="http://www.w3.org/1999/xlink" x="0px" y="0px"
	 viewBox="0 0 1400 1400" enable-background="new 0 0 1400 1400" xml:space="preserve">
<g>
	<line fill="none" stroke="#0000FF" stroke-width="70" stroke-miterlimit="10" x1="387.8" y1="851" x2="457.2" y2="851"/>
	<line fill="none" stroke="#0000FF" stroke-width="70" stroke-miterlimit="10" x1="526.5" y1="851" x2="595.9" y2="851"/>
	<line fill="none" stroke="#0000FF" stroke-width="70" stroke-miterlimit="10" x1="665.3" y1="851" x2="734.7" y2="851"/>
	<line fill="none" stroke="#0000FF" stroke-width="70" stroke-miterlimit="10" x1="804.1" y1="851" x2="873.5" y2="851"/>
	<line fill="none" stroke="#0000FF" stroke-width="70" stroke-miterlimit="10" x1="942.8" y1="851" x2="1012.2" y2="851"/>
	<line fill="none" stroke="#0000FF" stroke-width="70" stroke-miterlimit="10" x1="387.8" y1="989.8" x2="457.2" y2="989.8"/>
	<line fill="none" stroke="#0000FF" stroke-width="70" stroke-miterlimit="10" x1="526.5" y1="989.8" x2="595.9" y2="989.8"/>
	<line fill="none" stroke="#0000FF" stroke-width="70" stroke-miterlimit="10" x1="665.3" y1="989.8" x2="734.7" y2="989.8"/>
	
		<line opacity="0.3" fill="none" stroke="#0000FF" stroke-width="70" stroke-miterlimit="10" enable-background="new    " x1="804.1" y1="989.8" x2="873.5" y2="989.8"/>
	
		<line opacity="0.3" fill="none" stroke="#0000FF" stroke-width="70" stroke-miterlimit="10" enable-background="new    " x1="942.8" y1="989.8" x2="1012.2" y2="989.8"/>
</g>
<g enable-background="new    ">
	<path fill="#0000FF" d="M346.8,432.5h69.6v18.7h-25v66.6h25v18.7h-69.6v-18.7h25v-66.6h-25V432.5z"/>
	<path fill="#0000FF" d="M457.4,536.6h-18.7v-73.7h18.7v11h2.7c1.7-4.2,4.4-7.4,8.2-9.7c3.8-2.3,8.2-3.4,13.2-3.4
		c3.6,0,6.9,0.6,10,1.7c3.1,1.1,5.9,2.9,8.3,5.3c2.4,2.4,4.2,5.4,5.6,9.1c1.3,3.7,2,8,2,13.1v46.7h-18.7v-41.9
		c0-5.3-1.3-9.4-3.8-12.4c-2.5-3-6.2-4.5-10.9-4.5c-5.6,0-9.7,1.9-12.4,5.6c-2.7,3.7-4.1,8.7-4.1,14.9V536.6z"/>
	<path fill="#0000FF" d="M524.4,462.8h20.2l17.4,64.8h2.7l17.4-64.8h20.2l-21.1,73.7h-35.7L524.4,462.8z"/>
	<path fill="#0000FF" d="M621.9,518.7h25v-38.1h-23.2v-17.8h41.9v55.9h21.4v17.8h-65.1V518.7z M670.3,441c0,2-0.4,3.8-1.1,5.6
		c-0.7,1.7-1.8,3.2-3,4.5c-1.3,1.2-2.8,2.2-4.5,3c-1.7,0.7-3.5,1.1-5.4,1.1c-2,0-3.8-0.4-5.5-1.1c-1.7-0.7-3.2-1.7-4.5-3
		c-1.3-1.2-2.3-2.7-3-4.5c-0.7-1.7-1.1-3.6-1.1-5.6c0-2,0.4-3.8,1.1-5.6c0.7-1.7,1.8-3.2,3-4.5c1.3-1.2,2.8-2.2,4.5-3
		c1.7-0.7,3.5-1.1,5.5-1.1c1.9,0,3.7,0.4,5.4,1.1c1.7,0.7,3.2,1.7,4.5,3c1.3,1.2,2.3,2.7,3,4.5C669.9,437.1,670.3,439,670.3,441z"/>
	<path fill="#0000FF" d="M735.1,483.6c0,2.4,1.2,4.1,3.7,5.1c2.5,1,7,1.9,13.5,2.6c7.5,0.8,13.7,3,18.4,6.8
		c4.8,3.7,7.1,8.9,7.1,15.5v0.9c0,7.3-2.7,13.2-8,17.5c-5.4,4.4-12.9,6.5-22.6,6.5c-5.8,0-10.7-0.7-14.7-2.2
		c-4.1-1.5-7.4-3.3-10.1-5.6c-2.7-2.2-4.7-4.7-6.2-7.4c-1.4-2.7-2.4-5.4-2.9-8l17.2-5.6c0.8,3.2,2.5,5.9,5,8.3s6.4,3.6,11.7,3.6
		c4.7,0,7.9-0.7,9.6-2.2c1.7-1.4,2.6-3,2.6-4.7c0-1-0.2-1.9-0.7-2.8c-0.4-0.8-1.3-1.6-2.5-2.4c-1.2-0.7-2.8-1.4-4.8-1.9
		c-2-0.5-4.6-0.9-7.7-1.2c-8.3-0.7-14.9-2.8-19.8-6.5c-4.9-3.6-7.4-8.9-7.4-16v-0.9c0-3.7,0.8-6.9,2.4-9.7c1.6-2.8,3.7-5.1,6.2-7.1
		c2.6-1.9,5.5-3.4,8.9-4.4c3.4-1,6.8-1.5,10.4-1.5c4.7,0,8.7,0.6,12.1,1.7c3.4,1.1,6.3,2.6,8.7,4.5c2.4,1.8,4.3,3.9,5.8,6.1
		c1.5,2.2,2.6,4.4,3.4,6.5l-16.9,6.8c-0.9-2.7-2.4-4.8-4.6-6.3c-2.2-1.5-5-2.3-8.5-2.3c-3.2,0-5.6,0.6-7.1,1.7
		C735.9,480.5,735.1,482,735.1,483.6z"/>
	<path fill="#0000FF" d="M803.9,518.7h25v-38.1h-23.2v-17.8h41.9v55.9H869v17.8h-65.1V518.7z M852.2,441c0,2-0.4,3.8-1.1,5.6
		c-0.7,1.7-1.8,3.2-3,4.5c-1.3,1.2-2.8,2.2-4.5,3c-1.7,0.7-3.5,1.1-5.4,1.1c-2,0-3.8-0.4-5.5-1.1c-1.7-0.7-3.2-1.7-4.5-3
		c-1.3-1.2-2.3-2.7-3-4.5c-0.7-1.7-1.1-3.6-1.1-5.6c0-2,0.4-3.8,1.1-5.6c0.7-1.7,1.8-3.2,3-4.5c1.3-1.2,2.8-2.2,4.5-3
		c1.7-0.7,3.5-1.1,5.5-1.1c1.9,0,3.7,0.4,5.4,1.1c1.7,0.7,3.2,1.7,4.5,3c1.3,1.2,2.3,2.7,3,4.5C851.9,437.1,852.2,439,852.2,441z"/>
	<path fill="#0000FF" d="M965.8,500.6c0,6.1-1,11.6-3.1,16.3c-2.1,4.7-4.9,8.7-8.5,11.9c-3.6,3.2-7.7,5.7-12.3,7.4
		c-4.6,1.7-9.4,2.5-14.5,2.5c-5.1,0-9.9-0.8-14.5-2.5c-4.6-1.7-8.7-4.1-12.3-7.4c-3.6-3.2-6.4-7.2-8.5-11.9
		c-2.1-4.7-3.1-10.1-3.1-16.3v-1.8c0-6,1-11.4,3.1-16.1c2.1-4.7,4.9-8.7,8.5-12c3.6-3.3,7.7-5.7,12.3-7.4c4.6-1.7,9.4-2.5,14.5-2.5
		c5.1,0,9.9,0.8,14.5,2.5c4.6,1.7,8.7,4.2,12.3,7.4c3.6,3.3,6.4,7.3,8.5,12c2.1,4.7,3.1,10.1,3.1,16.1V500.6z M927.5,520.8
		c2.7,0,5.2-0.4,7.6-1.3c2.4-0.9,4.5-2.2,6.2-3.9c1.8-1.7,3.2-3.7,4.2-6.2c1-2.4,1.6-5.2,1.6-8.3v-3c0-3.1-0.5-5.8-1.6-8.3
		c-1-2.4-2.5-4.5-4.2-6.2c-1.8-1.7-3.9-3-6.2-3.9c-2.4-0.9-4.9-1.3-7.6-1.3c-2.7,0-5.2,0.4-7.6,1.3c-2.4,0.9-4.5,2.2-6.2,3.9
		c-1.8,1.7-3.2,3.7-4.2,6.2c-1,2.4-1.6,5.2-1.6,8.3v3c0,3.1,0.5,5.8,1.6,8.3c1,2.4,2.5,4.5,4.2,6.2c1.8,1.7,3.9,3,6.2,3.9
		C922.3,520.4,924.8,520.8,927.5,520.8z"/>
	<path fill="#0000FF" d="M1003.3,536.6h-18.7v-73.7h18.7v11h2.7c1.7-4.2,4.4-7.4,8.2-9.7c3.8-2.3,8.2-3.4,13.2-3.4
		c3.6,0,6.9,0.6,10,1.7c3.1,1.1,5.9,2.9,8.3,5.3c2.4,2.4,4.2,5.4,5.6,9.1c1.3,3.7,2,8,2,13.1v46.7h-18.7v-41.9
		c0-5.3-1.3-9.4-3.8-12.4c-2.5-3-6.2-4.5-10.9-4.5c-5.6,0-9.7,1.9-12.4,5.6c-2.7,3.7-4.1,8.7-4.1,14.9V536.6z"/>
</g>
</svg>
