<?xml version="1.0" encoding="utf-8"?>
<!-- Generator: Adobe Illustrator 18.1.0, SVG Export Plug-In . SVG Version: 6.00 Build 0)  -->
<svg version="1.1" id="Layer_1" xmlns="http://www.w3.org/2000/svg" xmlns:xlink="http://www.w3.org/1999/xlink" x="0px" y="0px"
	 viewBox="1167.2 282.6 200 200" enable-background="new 1167.2 282.6 200 200" xml:space="preserve">
<rect x="1167.2" y="282.6" fill="none" stroke="#0000FF" stroke-width="12.5" stroke-miterlimit="10" width="200" height="200"/>
<g>
	<g>
		<path fill="#0000FF" d="M1257.4,372.9h-16.7l-2.4,10.5h-9.7l11.7-49h17.4l11.7,49h-9.7L1257.4,372.9z M1242.7,364.1h12.7
			l-5.7-25.1h-1.3L1242.7,364.1z"/>
		<path fill="#0000FF" d="M1276.6,375h11.8v-17.9h-10.9v-8.4h19.7V375h10.1v8.4h-30.7V375z M1299.3,338.4c0,0.9-0.2,1.8-0.5,2.6
			c-0.4,0.8-0.8,1.5-1.4,2.1c-0.6,0.6-1.3,1.1-2.1,1.4c-0.8,0.3-1.7,0.5-2.6,0.5c-0.9,0-1.8-0.2-2.6-0.5c-0.8-0.4-1.5-0.8-2.1-1.4
			c-0.6-0.6-1.1-1.3-1.4-2.1c-0.4-0.8-0.5-1.7-0.5-2.6c0-0.9,0.2-1.8,0.5-2.6c0.3-0.8,0.8-1.5,1.4-2.1c0.6-0.6,1.3-1.1,2.1-1.4
			c0.8-0.4,1.7-0.5,2.6-0.5c0.9,0,1.7,0.2,2.6,0.5c0.8,0.3,1.5,0.8,2.1,1.4c0.6,0.6,1.1,1.3,1.4,2.1
			C1299.1,336.6,1299.3,337.5,1299.3,338.4z"/>
	</g>
	<g>
		<line fill="none" stroke="#0000FF" stroke-width="10" stroke-miterlimit="10" x1="1222.2" y1="413.4" x2="1232.2" y2="413.4"/>
		<line fill="none" stroke="#0000FF" stroke-width="10" stroke-miterlimit="10" x1="1242.2" y1="413.4" x2="1252.2" y2="413.4"/>
		<line fill="none" stroke="#0000FF" stroke-width="10" stroke-miterlimit="10" x1="1262.2" y1="413.4" x2="1272.2" y2="413.4"/>
		<line fill="none" stroke="#0000FF" stroke-width="10" stroke-miterlimit="10" x1="1282.2" y1="413.4" x2="1292.2" y2="413.4"/>
		<line fill="none" stroke="#0000FF" stroke-width="10" stroke-miterlimit="10" x1="1302.2" y1="413.4" x2="1312.2" y2="413.4"/>
		<line fill="none" stroke="#0000FF" stroke-width="10" stroke-miterlimit="10" x1="1222.2" y1="433.4" x2="1232.2" y2="433.4"/>
		<line fill="none" stroke="#0000FF" stroke-width="10" stroke-miterlimit="10" x1="1242.2" y1="433.4" x2="1252.2" y2="433.4"/>
		<line fill="none" stroke="#0000FF" stroke-width="10" stroke-miterlimit="10" x1="1262.2" y1="433.4" x2="1272.2" y2="433.4"/>
		<line fill="none" stroke="#0000FF" stroke-width="10" stroke-miterlimit="10" x1="1282.2" y1="433.4" x2="1292.2" y2="433.4"/>
		
			<line opacity="0.3" fill="none" stroke="#0000FF" stroke-width="10" stroke-miterlimit="10" x1="1302.2" y1="433.4" x2="1312.2" y2="433.4"/>
	</g>
</g>
<rect x="1213" y="214" fill="none" width="106" height="72"/>
<text transform="matrix(1 0 0 1 1241.5195 228)"><tspan x="0" y="0" font-family="'SpaceMono-Bold'" font-size="20">HTML</tspan><tspan x="6.1" y="24" font-family="'SpaceMono-Bold'" font-size="20">CSS</tspan><tspan x="12.2" y="48" font-family="'SpaceMono-Bold'" font-size="20">JS</tspan></text>
</svg>
