<?xml version="1.0" encoding="utf-8"?>
<!-- Generator: Adobe Illustrator 18.1.0, SVG Export Plug-In . SVG Version: 6.00 Build 0)  -->
<svg version="1.1" id="Layer_1" xmlns="http://www.w3.org/2000/svg" xmlns:xlink="http://www.w3.org/1999/xlink" x="0px" y="0px"
	 viewBox="0 0 1400 1400" enable-background="new 0 0 1400 1400" xml:space="preserve">
<g>
	<line fill="none" stroke="#0000FF" stroke-width="70" stroke-miterlimit="10" x1="387.8" y1="851" x2="457.2" y2="851"/>
	<line fill="none" stroke="#0000FF" stroke-width="70" stroke-miterlimit="10" x1="526.5" y1="851" x2="595.9" y2="851"/>
	<line fill="none" stroke="#0000FF" stroke-width="70" stroke-miterlimit="10" x1="665.3" y1="851" x2="734.7" y2="851"/>
	<line fill="none" stroke="#0000FF" stroke-width="70" stroke-miterlimit="10" x1="804.1" y1="851" x2="873.5" y2="851"/>
	<line fill="none" stroke="#0000FF" stroke-width="70" stroke-miterlimit="10" x1="942.8" y1="851" x2="1012.2" y2="851"/>
	<line fill="none" stroke="#0000FF" stroke-width="70" stroke-miterlimit="10" x1="387.8" y1="989.8" x2="457.2" y2="989.8"/>
	<line fill="none" stroke="#0000FF" stroke-width="70" stroke-miterlimit="10" x1="526.5" y1="989.8" x2="595.9" y2="989.8"/>
	<line fill="none" stroke="#0000FF" stroke-width="70" stroke-miterlimit="10" x1="665.3" y1="989.8" x2="734.7" y2="989.8"/>
	
		<line opacity="0.3" fill="none" stroke="#0000FF" stroke-width="70" stroke-miterlimit="10" enable-background="new    " x1="804.1" y1="989.8" x2="873.5" y2="989.8"/>
	
		<line opacity="0.3" fill="none" stroke="#0000FF" stroke-width="70" stroke-miterlimit="10" enable-background="new    " x1="942.8" y1="989.8" x2="1012.2" y2="989.8"/>
</g>
<g enable-background="new    ">
	<path fill="#0000FF" d="M214.6,432.5h19.6V475h33.6v-42.5h19.6v104.1h-19.6v-42.8h-33.6v42.8h-19.6V432.5z"/>
	<path fill="#0000FF" d="M304.5,432.5h74.9v18.7h-27.7v85.3h-19.6v-85.3h-27.7V432.5z"/>
	<path fill="#0000FF" d="M390.8,432.5h34.5l5.9,78.2v15.2h3.6v-15.2l5.9-78.2h34.5v104.1h-17.8V467l1.8-23.8h-3.6l-7.7,93.4h-29.4
		l-8-93.4h-3.6l1.8,23.8v69.6h-17.8V432.5z"/>
</g>
<g enable-background="new    ">
	<path fill="#0000FF" d="M490.7,432.5h19.6v85.3h47.3v18.7h-66.9V432.5z"/>
</g>
<g enable-background="new    ">
	<path fill="#0000FF" d="M572,476.1h22.6v-22.6h16.9v22.6h22.6V493h-22.6v22.6h-16.9V493H572V476.1z"/>
	<path fill="#0000FF" d="M694.4,520.8c3.8,0,6.9-0.6,9.3-1.7c2.4-1.1,4.3-2.7,5.6-4.6s2.3-4.2,2.8-6.7c0.5-2.5,0.7-5.1,0.7-7.8v-2.7
		h19.6v2.7c0,12.4-3.2,21.9-9.7,28.6c-6.5,6.7-15.9,10-28.3,10c-11.9,0-21.3-3.6-28.2-10.9c-6.9-7.2-10.4-17.8-10.4-31.7v-23.2
		c0-6.6,0.9-12.6,2.7-17.9c1.8-5.3,4.4-9.8,7.7-13.4c3.4-3.6,7.4-6.4,12.2-8.3s10.1-2.9,16.1-2.9c6.1,0,11.6,0.9,16.4,2.7
		c4.8,1.8,8.7,4.4,12,7.7c3.2,3.4,5.7,7.4,7.3,12.2c1.6,4.8,2.5,10.1,2.5,16.1v2.7h-19.6v-2.7c0-2.5-0.3-5-0.9-7.4
		c-0.6-2.5-1.6-4.7-3-6.7c-1.4-2-3.3-3.6-5.6-4.8c-2.4-1.2-5.4-1.9-8.9-1.9c-3.3,0-6.1,0.6-8.5,1.9c-2.4,1.2-4.4,2.9-5.9,5.1
		c-1.6,2.1-2.8,4.6-3.5,7.4c-0.7,2.8-1.1,5.8-1.1,8.8v26.2c0,3.4,0.3,6.5,1,9.3c0.7,2.8,1.8,5.3,3.3,7.4c1.5,2.1,3.4,3.7,5.9,4.8
		C687.9,520.2,690.9,520.8,694.4,520.8z"/>
	<path fill="#0000FF" d="M802.9,464.3c0-4.2-1.6-7.8-4.8-10.9c-3.2-3.1-7.8-4.6-13.6-4.6c-5,0-8.9,1-11.7,3c-2.9,2-4.3,4.8-4.3,8.3
		c0,1.8,0.3,3.4,1,4.8c0.7,1.4,1.9,2.7,3.6,3.9c1.7,1.1,4,2.2,6.8,3c2.8,0.9,6.4,1.7,10.8,2.5c10.9,2,19.2,5.3,25,10
		c5.7,4.7,8.6,11.5,8.6,20.7v1.8c0,4.9-0.9,9.2-2.6,13.2c-1.7,3.9-4.2,7.3-7.5,10c-3.3,2.8-7.2,4.9-11.9,6.4
		c-4.7,1.5-9.9,2.2-15.8,2.2c-6.8,0-12.9-1-18.1-2.9s-9.5-4.6-13-8c-3.5-3.4-6.1-7.4-7.9-12c-1.8-4.6-2.7-9.6-2.7-15.1v-4.5h19.6
		v3.6c0,6.2,1.8,11.2,5.4,14.9c3.6,3.7,9.2,5.6,16.9,5.6c5.9,0,10.4-1.3,13.2-3.9c2.9-2.6,4.3-5.6,4.3-9.2c0-1.7-0.3-3.3-0.9-4.8
		c-0.6-1.5-1.6-2.9-3.1-4.2c-1.5-1.2-3.5-2.4-6.1-3.3c-2.6-1-5.8-1.8-9.8-2.5c-5.3-0.9-10.1-2.1-14.4-3.5c-4.4-1.4-8.2-3.3-11.4-5.7
		s-5.7-5.4-7.5-8.9c-1.8-3.6-2.7-7.9-2.7-13.1v-0.9c0-4.3,0.9-8.2,2.6-11.8c1.7-3.6,4.2-6.8,7.3-9.4s6.9-4.8,11.3-6.2
		c4.4-1.5,9.3-2.2,14.8-2.2c6.1,0,11.6,0.9,16.4,2.6c4.8,1.7,8.7,4.1,12,7.1c3.2,3,5.7,6.4,7.3,10.3c1.6,3.9,2.5,7.9,2.5,12.2v5.4
		h-19.6V464.3z"/>
	<path fill="#0000FF" d="M893.9,464.3c0-4.2-1.6-7.8-4.8-10.9c-3.2-3.1-7.8-4.6-13.6-4.6c-5,0-8.9,1-11.7,3c-2.9,2-4.3,4.8-4.3,8.3
		c0,1.8,0.3,3.4,1,4.8c0.7,1.4,1.9,2.7,3.6,3.9c1.7,1.1,4,2.2,6.8,3c2.8,0.9,6.4,1.7,10.8,2.5c10.9,2,19.2,5.3,25,10
		c5.7,4.7,8.6,11.5,8.6,20.7v1.8c0,4.9-0.9,9.2-2.6,13.2c-1.7,3.9-4.2,7.3-7.5,10c-3.3,2.8-7.2,4.9-11.9,6.4
		c-4.7,1.5-9.9,2.2-15.8,2.2c-6.8,0-12.9-1-18.1-2.9s-9.5-4.6-13-8c-3.5-3.4-6.1-7.4-7.9-12c-1.8-4.6-2.7-9.6-2.7-15.1v-4.5h19.6
		v3.6c0,6.2,1.8,11.2,5.4,14.9c3.6,3.7,9.2,5.6,16.9,5.6c5.9,0,10.4-1.3,13.2-3.9c2.9-2.6,4.3-5.6,4.3-9.2c0-1.7-0.3-3.3-0.9-4.8
		c-0.6-1.5-1.6-2.9-3.1-4.2c-1.5-1.2-3.5-2.4-6.1-3.3c-2.6-1-5.8-1.8-9.8-2.5c-5.3-0.9-10.1-2.1-14.4-3.5c-4.4-1.4-8.2-3.3-11.4-5.7
		s-5.7-5.4-7.5-8.9c-1.8-3.6-2.7-7.9-2.7-13.1v-0.9c0-4.3,0.9-8.2,2.6-11.8c1.7-3.6,4.2-6.8,7.3-9.4s6.9-4.8,11.3-6.2
		c4.4-1.5,9.3-2.2,14.8-2.2c6.1,0,11.6,0.9,16.4,2.6c4.8,1.7,8.7,4.1,12,7.1c3.2,3,5.7,6.4,7.3,10.3c1.6,3.9,2.5,7.9,2.5,12.2v5.4
		h-19.6V464.3z"/>
	<path fill="#0000FF" d="M935.9,476.1h22.6v-22.6h16.9v22.6h22.6V493h-22.6v22.6h-16.9V493h-22.6V476.1z"/>
	<path fill="#0000FF" d="M1089.4,505.3c0,10.8-2.9,19.1-8.8,24.8c-5.8,5.7-13.9,8.5-24.1,8.5c-5.3,0-10-0.7-14.3-2.2
		c-4.3-1.4-7.9-3.6-11-6.4c-3.1-2.8-5.5-6.3-7.1-10.4c-1.7-4.1-2.5-8.9-2.5-14.3v-9.8h19.6v9.8c0,4.7,1.3,8.3,3.9,10.9
		c2.6,2.6,6.2,3.9,10.9,3.9c4.4,0,7.8-1.3,10.2-3.9c2.4-2.6,3.6-6.2,3.6-11v-54.4H1059v-18.4h39.3v18.4h-8.9V505.3z"/>
	<path fill="#0000FF" d="M1166.8,464.3c0-4.2-1.6-7.8-4.8-10.9c-3.2-3.1-7.8-4.6-13.6-4.6c-5,0-8.9,1-11.7,3c-2.9,2-4.3,4.8-4.3,8.3
		c0,1.8,0.3,3.4,1,4.8c0.7,1.4,1.9,2.7,3.6,3.9c1.7,1.1,4,2.2,6.8,3c2.8,0.9,6.4,1.7,10.8,2.5c10.9,2,19.2,5.3,25,10
		c5.7,4.7,8.6,11.5,8.6,20.7v1.8c0,4.9-0.9,9.2-2.6,13.2c-1.7,3.9-4.2,7.3-7.5,10c-3.3,2.8-7.2,4.9-11.9,6.4
		c-4.7,1.5-9.9,2.2-15.8,2.2c-6.8,0-12.9-1-18.1-2.9c-5.2-1.9-9.5-4.6-13-8c-3.5-3.4-6.1-7.4-7.9-12c-1.8-4.6-2.7-9.6-2.7-15.1v-4.5
		h19.6v3.6c0,6.2,1.8,11.2,5.4,14.9c3.6,3.7,9.2,5.6,16.9,5.6c5.9,0,10.4-1.3,13.2-3.9c2.9-2.6,4.3-5.6,4.3-9.2
		c0-1.7-0.3-3.3-0.9-4.8c-0.6-1.5-1.6-2.9-3.1-4.2c-1.5-1.2-3.5-2.4-6.1-3.3c-2.6-1-5.8-1.8-9.8-2.5c-5.3-0.9-10.1-2.1-14.4-3.5
		c-4.4-1.4-8.2-3.3-11.4-5.7c-3.2-2.4-5.7-5.4-7.5-8.9c-1.8-3.6-2.7-7.9-2.7-13.1v-0.9c0-4.3,0.9-8.2,2.6-11.8
		c1.7-3.6,4.2-6.8,7.3-9.4c3.1-2.7,6.9-4.8,11.3-6.2c4.4-1.5,9.3-2.2,14.8-2.2c6.1,0,11.6,0.9,16.4,2.6c4.8,1.7,8.7,4.1,12,7.1
		c3.2,3,5.6,6.4,7.3,10.3c1.6,3.9,2.5,7.9,2.5,12.2v5.4h-19.6V464.3z"/>
</g>
</svg>
