<?xml version="1.0" encoding="utf-8"?>
<!-- Generator: Adobe Illustrator 18.1.0, SVG Export Plug-In . SVG Version: 6.00 Build 0)  -->
<svg version="1.1" id="Layer_1" xmlns="http://www.w3.org/2000/svg" xmlns:xlink="http://www.w3.org/1999/xlink" x="0px" y="0px"
	 viewBox="863.7 282.6 200 200" enable-background="new 863.7 282.6 200 200" xml:space="preserve">
<rect x="863.7" y="282.6" fill="none" stroke="#0000FF" stroke-width="12.5" stroke-miterlimit="10" width="200" height="200"/>
<g>
	<g>
		<path fill="#0000FF" d="M953.8,372.9h-16.7l-2.4,10.5h-9.7l11.7-49h17.4l11.7,49h-9.7L953.8,372.9z M939.1,364.1h12.7l-5.7-25.1
			h-1.3L939.1,364.1z"/>
		<path fill="#0000FF" d="M973,375h11.8v-17.9h-10.9v-8.4h19.7V375h10.1v8.4H973V375z M995.8,338.4c0,0.9-0.2,1.8-0.5,2.6
			c-0.4,0.8-0.8,1.5-1.4,2.1c-0.6,0.6-1.3,1.1-2.1,1.4c-0.8,0.3-1.7,0.5-2.6,0.5c-0.9,0-1.8-0.2-2.6-0.5c-0.8-0.4-1.5-0.8-2.1-1.4
			c-0.6-0.6-1.1-1.3-1.4-2.1c-0.4-0.8-0.5-1.7-0.5-2.6c0-0.9,0.2-1.8,0.5-2.6c0.3-0.8,0.8-1.5,1.4-2.1c0.6-0.6,1.3-1.1,2.1-1.4
			c0.8-0.4,1.7-0.5,2.6-0.5c0.9,0,1.7,0.2,2.6,0.5c0.8,0.3,1.5,0.8,2.1,1.4c0.6,0.6,1.1,1.3,1.4,2.1
			C995.6,336.6,995.8,337.5,995.8,338.4z"/>
	</g>
	<g>
		<line fill="none" stroke="#0000FF" stroke-width="10" stroke-miterlimit="10" x1="918.7" y1="413.4" x2="928.7" y2="413.4"/>
		<line fill="none" stroke="#0000FF" stroke-width="10" stroke-miterlimit="10" x1="938.7" y1="413.4" x2="948.7" y2="413.4"/>
		<line fill="none" stroke="#0000FF" stroke-width="10" stroke-miterlimit="10" x1="958.7" y1="413.4" x2="968.7" y2="413.4"/>
		<line fill="none" stroke="#0000FF" stroke-width="10" stroke-miterlimit="10" x1="978.7" y1="413.4" x2="988.7" y2="413.4"/>
		<line fill="none" stroke="#0000FF" stroke-width="10" stroke-miterlimit="10" x1="998.7" y1="413.4" x2="1008.7" y2="413.4"/>
		<line fill="none" stroke="#0000FF" stroke-width="10" stroke-miterlimit="10" x1="918.7" y1="433.4" x2="928.7" y2="433.4"/>
		<line fill="none" stroke="#0000FF" stroke-width="10" stroke-miterlimit="10" x1="938.7" y1="433.4" x2="948.7" y2="433.4"/>
		<line fill="none" stroke="#0000FF" stroke-width="10" stroke-miterlimit="10" x1="958.7" y1="433.4" x2="968.7" y2="433.4"/>
		<line fill="none" stroke="#0000FF" stroke-width="10" stroke-miterlimit="10" x1="978.7" y1="433.4" x2="988.7" y2="433.4"/>
		
			<line opacity="0.3" fill="none" stroke="#0000FF" stroke-width="10" stroke-miterlimit="10" x1="998.7" y1="433.4" x2="1008.7" y2="433.4"/>
	</g>
</g>
<rect x="917" y="214" fill="none" width="106" height="60"/>
<text transform="matrix(1 0 0 1 948.5801 263)" font-family="'SpaceMono-Bold'" font-size="70">P</text>
</svg>
