<?xml version="1.0" encoding="utf-8"?>
<!-- Generator: Adobe Illustrator 18.1.0, SVG Export Plug-In . SVG Version: 6.00 Build 0)  -->
<svg version="1.1" id="Layer_1" xmlns="http://www.w3.org/2000/svg" xmlns:xlink="http://www.w3.org/1999/xlink" x="0px" y="0px"
	 viewBox="600 0 200 200" enable-background="new 600 0 200 200" xml:space="preserve">
<rect x="600" fill="none" stroke="#0000FF" stroke-width="12.5" stroke-miterlimit="10" width="200" height="200"/>
<g>
	<g>
		<path fill="#0000FF" d="M690.2,90.3h-16.7l-2.4,10.5h-9.7l11.7-49h17.4l11.7,49h-9.7L690.2,90.3z M675.5,81.5h12.7l-5.7-25.1h-1.3
			L675.5,81.5z"/>
		<path fill="#0000FF" d="M709.3,92.4h11.8V74.5h-10.9v-8.4h19.7v26.3H740v8.4h-30.7V92.4z M732.1,55.8c0,0.9-0.2,1.8-0.5,2.6
			c-0.4,0.8-0.8,1.5-1.4,2.1c-0.6,0.6-1.3,1.1-2.1,1.4c-0.8,0.3-1.7,0.5-2.6,0.5c-0.9,0-1.8-0.2-2.6-0.5c-0.8-0.4-1.5-0.8-2.1-1.4
			c-0.6-0.6-1.1-1.3-1.4-2.1c-0.4-0.8-0.5-1.7-0.5-2.6c0-0.9,0.2-1.8,0.5-2.6c0.3-0.8,0.8-1.5,1.4-2.1c0.6-0.6,1.3-1.1,2.1-1.4
			c0.8-0.4,1.7-0.5,2.6-0.5c0.9,0,1.7,0.2,2.6,0.5c0.8,0.3,1.5,0.8,2.1,1.4c0.6,0.6,1.1,1.3,1.4,2.1C731.9,54,732.1,54.9,732.1,55.8
			z"/>
	</g>
	<g>
		<line fill="none" stroke="#0000FF" stroke-width="10" stroke-miterlimit="10" x1="655" y1="130.8" x2="665" y2="130.8"/>
		<line fill="none" stroke="#0000FF" stroke-width="10" stroke-miterlimit="10" x1="675" y1="130.8" x2="685" y2="130.8"/>
		<line fill="none" stroke="#0000FF" stroke-width="10" stroke-miterlimit="10" x1="695" y1="130.8" x2="705" y2="130.8"/>
		<line fill="none" stroke="#0000FF" stroke-width="10" stroke-miterlimit="10" x1="715" y1="130.8" x2="725" y2="130.8"/>
		<line fill="none" stroke="#0000FF" stroke-width="10" stroke-miterlimit="10" x1="735" y1="130.8" x2="745" y2="130.8"/>
		<line fill="none" stroke="#0000FF" stroke-width="10" stroke-miterlimit="10" x1="655" y1="150.8" x2="665" y2="150.8"/>
		<line fill="none" stroke="#0000FF" stroke-width="10" stroke-miterlimit="10" x1="675" y1="150.8" x2="685" y2="150.8"/>
		<line fill="none" stroke="#0000FF" stroke-width="10" stroke-miterlimit="10" x1="695" y1="150.8" x2="705" y2="150.8"/>
		<line fill="none" stroke="#0000FF" stroke-width="10" stroke-miterlimit="10" x1="715" y1="150.8" x2="725" y2="150.8"/>
		
			<line opacity="0.3" fill="none" stroke="#0000FF" stroke-width="10" stroke-miterlimit="10" x1="735" y1="150.8" x2="745" y2="150.8"/>
	</g>
</g>
</svg>
