<?xml version="1.0" encoding="utf-8"?>
<!-- Generator: Adobe Illustrator 18.1.0, SVG Export Plug-In . SVG Version: 6.00 Build 0)  -->
<svg version="1.1" id="Layer_1" xmlns="http://www.w3.org/2000/svg" xmlns:xlink="http://www.w3.org/1999/xlink" x="0px" y="0px"
	 viewBox="1514 0 200 200" enable-background="new 1514 0 200 200" xml:space="preserve">
<rect x="1514" fill="none" stroke="#0000FF" stroke-width="12.5" stroke-miterlimit="10" width="200" height="200"/>
<g>
	<g>
		<path fill="#0000FF" d="M1604.2,90.3h-16.7l-2.4,10.5h-9.7l11.7-49h17.4l11.7,49h-9.7L1604.2,90.3z M1589.5,81.5h12.7l-5.7-25.1
			h-1.3L1589.5,81.5z"/>
		<path fill="#0000FF" d="M1623.3,92.4h11.8V74.5h-10.9v-8.4h19.7v26.3h10.1v8.4h-30.7V92.4z M1646.1,55.8c0,0.9-0.2,1.8-0.5,2.6
			c-0.4,0.8-0.8,1.5-1.4,2.1c-0.6,0.6-1.3,1.1-2.1,1.4c-0.8,0.3-1.7,0.5-2.6,0.5c-0.9,0-1.8-0.2-2.6-0.5c-0.8-0.4-1.5-0.8-2.1-1.4
			c-0.6-0.6-1.1-1.3-1.4-2.1c-0.4-0.8-0.5-1.7-0.5-2.6c0-0.9,0.2-1.8,0.5-2.6c0.3-0.8,0.8-1.5,1.4-2.1c0.6-0.6,1.3-1.1,2.1-1.4
			c0.8-0.4,1.7-0.5,2.6-0.5c0.9,0,1.7,0.2,2.6,0.5c0.8,0.3,1.5,0.8,2.1,1.4c0.6,0.6,1.1,1.3,1.4,2.1
			C1645.9,54,1646.1,54.9,1646.1,55.8z"/>
	</g>
	<g>
		<line fill="none" stroke="#0000FF" stroke-width="10" stroke-miterlimit="10" x1="1569" y1="130.8" x2="1579" y2="130.8"/>
		<line fill="none" stroke="#0000FF" stroke-width="10" stroke-miterlimit="10" x1="1589" y1="130.8" x2="1599" y2="130.8"/>
		<line fill="none" stroke="#0000FF" stroke-width="10" stroke-miterlimit="10" x1="1609" y1="130.8" x2="1619" y2="130.8"/>
		<line fill="none" stroke="#0000FF" stroke-width="10" stroke-miterlimit="10" x1="1629" y1="130.8" x2="1639" y2="130.8"/>
		<line fill="none" stroke="#0000FF" stroke-width="10" stroke-miterlimit="10" x1="1649" y1="130.8" x2="1659" y2="130.8"/>
		<line fill="none" stroke="#0000FF" stroke-width="10" stroke-miterlimit="10" x1="1569" y1="150.8" x2="1579" y2="150.8"/>
		<line fill="none" stroke="#0000FF" stroke-width="10" stroke-miterlimit="10" x1="1589" y1="150.8" x2="1599" y2="150.8"/>
		<line fill="none" stroke="#0000FF" stroke-width="10" stroke-miterlimit="10" x1="1609" y1="150.8" x2="1619" y2="150.8"/>
		<line fill="none" stroke="#0000FF" stroke-width="10" stroke-miterlimit="10" x1="1629" y1="150.8" x2="1639" y2="150.8"/>
		
			<line opacity="0.3" fill="none" stroke="#0000FF" stroke-width="10" stroke-miterlimit="10" x1="1649" y1="150.8" x2="1659" y2="150.8"/>
	</g>
</g>
<rect x="1540" y="-72" fill="none" width="106" height="60"/>
<text transform="matrix(1 0 0 1 1550.1602 -23)" font-family="'SpaceMono-Bold'" font-size="70">Pr</text>
<rect x="1564" y="196" fill="none" width="106" height="60"/>
<text transform="matrix(1 0 0 1 1571.0996 217)"><tspan x="0" y="0" font-family="'SpaceMono-Bold'" font-size="30">Invi</tspan><tspan x="73.4" y="0" font-family="'SpaceMono-Bold'" font-size="30">-</tspan><tspan x="9.2" y="36" font-family="'SpaceMono-Bold'" font-size="30">sion</tspan></text>
</svg>
