<?xml version="1.0" encoding="utf-8"?>
<!-- Generator: Adobe Illustrator 18.1.0, SVG Export Plug-In . SVG Version: 6.00 Build 0)  -->
<svg version="1.1" id="Layer_1" xmlns="http://www.w3.org/2000/svg" xmlns:xlink="http://www.w3.org/1999/xlink" x="0px" y="0px"
	 viewBox="0 0 1400 1400" enable-background="new 0 0 1400 1400" xml:space="preserve">
<g>
	<line fill="none" stroke="#0000FF" stroke-width="70" stroke-miterlimit="10" x1="387.8" y1="851" x2="457.2" y2="851"/>
	<line fill="none" stroke="#0000FF" stroke-width="70" stroke-miterlimit="10" x1="526.5" y1="851" x2="595.9" y2="851"/>
	<line fill="none" stroke="#0000FF" stroke-width="70" stroke-miterlimit="10" x1="665.3" y1="851" x2="734.7" y2="851"/>
	<line fill="none" stroke="#0000FF" stroke-width="70" stroke-miterlimit="10" x1="804.1" y1="851" x2="873.5" y2="851"/>
	<line fill="none" stroke="#0000FF" stroke-width="70" stroke-miterlimit="10" x1="942.8" y1="851" x2="1012.2" y2="851"/>
	<line fill="none" stroke="#0000FF" stroke-width="70" stroke-miterlimit="10" x1="387.8" y1="989.8" x2="457.2" y2="989.8"/>
	<line fill="none" stroke="#0000FF" stroke-width="70" stroke-miterlimit="10" x1="526.5" y1="989.8" x2="595.9" y2="989.8"/>
	<line fill="none" stroke="#0000FF" stroke-width="70" stroke-miterlimit="10" x1="665.3" y1="989.8" x2="734.7" y2="989.8"/>
	
		<line opacity="0.3" fill="none" stroke="#0000FF" stroke-width="70" stroke-miterlimit="10" enable-background="new    " x1="804.1" y1="989.8" x2="873.5" y2="989.8"/>
	
		<line opacity="0.3" fill="none" stroke="#0000FF" stroke-width="70" stroke-miterlimit="10" enable-background="new    " x1="942.8" y1="989.8" x2="1012.2" y2="989.8"/>
</g>
<g enable-background="new    ">
	<path fill="#0000FF" d="M275.4,497.3v39.3h-19.6V432.5h40.7c5.4,0,10,0.9,14,2.6c4,1.7,7.3,4,9.9,6.8c2.6,2.8,4.6,6,5.9,9.7
		c1.3,3.6,2,7.3,2,11.1v3.6c0,3.9-0.7,7.7-2,11.4c-1.3,3.7-3.3,7-5.9,10c-2.6,2.9-5.9,5.3-9.9,7.1c-4,1.8-8.6,2.7-14,2.7H275.4z
		 M275.4,478.6h19.2c4.4,0,7.8-1.2,10.3-3.6s3.8-5.4,3.8-9.2V464c0-3.8-1.3-6.8-3.8-9.2c-2.5-2.4-6-3.6-10.3-3.6h-19.2V478.6z"/>
	<path fill="#0000FF" d="M344.1,462.8h31.2v10.7h2.7c1.4-4.1,3.7-7.2,7.1-9.4c3.3-2.2,7.3-3.3,12-3.3c7.3,0,13.2,2.3,17.7,6.9
		c4.5,4.6,6.7,11.6,6.7,21v3.3l-19.3,1.8v-2.1c0-4.1-1-7.3-3.1-9.7c-2.1-2.4-5.2-3.6-9.4-3.6c-4.2,0-7.4,1.4-9.8,4.3
		c-2.4,2.9-3.6,7-3.6,12.3v23.8h16.9v17.8h-50.8v-17.8h15.2v-38.1h-13.4V462.8z"/>
	<path fill="#0000FF" d="M510.9,500.6c0,6.1-1,11.6-3.1,16.3c-2.1,4.7-4.9,8.7-8.5,11.9c-3.6,3.2-7.7,5.7-12.3,7.4
		c-4.6,1.7-9.4,2.5-14.5,2.5c-5.1,0-9.9-0.8-14.5-2.5c-4.6-1.7-8.7-4.1-12.3-7.4c-3.6-3.2-6.4-7.2-8.5-11.9
		c-2.1-4.7-3.1-10.1-3.1-16.3v-1.8c0-6,1-11.4,3.1-16.1c2.1-4.7,4.9-8.7,8.5-12c3.6-3.3,7.7-5.7,12.3-7.4c4.6-1.7,9.4-2.5,14.5-2.5
		c5.1,0,9.9,0.8,14.5,2.5c4.6,1.7,8.7,4.2,12.3,7.4c3.6,3.3,6.4,7.3,8.5,12c2.1,4.7,3.1,10.1,3.1,16.1V500.6z M472.5,520.8
		c2.7,0,5.2-0.4,7.6-1.3c2.4-0.9,4.5-2.2,6.2-3.9c1.8-1.7,3.2-3.7,4.2-6.2c1-2.4,1.6-5.2,1.6-8.3v-3c0-3.1-0.5-5.8-1.6-8.3
		c-1-2.4-2.5-4.5-4.2-6.2c-1.8-1.7-3.9-3-6.2-3.9c-2.4-0.9-4.9-1.3-7.6-1.3c-2.7,0-5.2,0.4-7.6,1.3c-2.4,0.9-4.5,2.2-6.2,3.9
		c-1.8,1.7-3.2,3.7-4.2,6.2c-1,2.4-1.6,5.2-1.6,8.3v3c0,3.1,0.5,5.8,1.6,8.3c1,2.4,2.5,4.5,4.2,6.2c1.8,1.7,3.9,3,6.2,3.9
		C467.3,520.4,469.9,520.8,472.5,520.8z"/>
	<path fill="#0000FF" d="M601.6,509.5c-1.7,8.7-5.7,15.8-12,21.1c-6.3,5.4-14.7,8-25.2,8c-5.5,0-10.5-0.8-15.2-2.5
		c-4.7-1.7-8.8-4.1-12.3-7.3c-3.5-3.2-6.2-7.1-8.2-11.7c-2-4.7-3-10-3-15.9v-1.8c0-5.9,1-11.3,3-16.1c2-4.8,4.7-8.8,8.3-12.2
		c3.5-3.4,7.6-5.9,12.3-7.7c4.7-1.8,9.7-2.7,15.1-2.7c10.3,0,18.7,2.7,25.1,8c6.4,5.4,10.4,12.4,12.1,21.1l-18.4,4.8
		c-0.6-4.4-2.5-8.1-5.6-11.3c-3.2-3.2-7.6-4.8-13.4-4.8c-2.7,0-5.2,0.5-7.6,1.5c-2.4,1-4.5,2.4-6.2,4.2c-1.8,1.8-3.2,4.1-4.2,6.7
		c-1,2.6-1.6,5.6-1.6,8.8v0.9c0,3.3,0.5,6.2,1.6,8.7c1,2.5,2.5,4.6,4.2,6.3c1.8,1.7,3.9,3,6.2,3.8c2.4,0.8,4.9,1.3,7.6,1.3
		c5.7,0,10.1-1.4,13.2-4.3c3-2.9,5-6.7,5.9-11.6L601.6,509.5z"/>
	<path fill="#0000FF" d="M637.1,505.8c0.1,2.2,0.6,4.2,1.6,6c0.9,1.8,2.2,3.4,3.9,4.8c1.6,1.3,3.5,2.4,5.6,3.1
		c2.1,0.7,4.4,1.1,6.8,1.1c4.7,0,8.2-0.8,10.7-2.5c2.5-1.6,4.3-3.6,5.4-5.9l16.1,8.9c-0.9,1.9-2.1,3.8-3.7,5.9
		c-1.6,2-3.6,3.9-6.2,5.6c-2.5,1.7-5.6,3.1-9.2,4.2c-3.6,1.1-7.9,1.6-12.7,1.6c-5.6,0-10.6-0.9-15.2-2.7c-4.6-1.8-8.5-4.4-11.8-7.7
		c-3.3-3.4-5.9-7.5-7.7-12.3c-1.8-4.9-2.8-10.4-2.8-16.5v-0.9c0-5.6,1-10.8,2.9-15.5c1.9-4.7,4.6-8.6,8-11.9
		c3.4-3.3,7.3-5.8,11.8-7.7c4.5-1.8,9.3-2.8,14.5-2.8c6.3,0,11.8,1.1,16.4,3.3c4.6,2.2,8.3,5.1,11.3,8.5c3,3.4,5.2,7.2,6.5,11.3
		c1.4,4.1,2.1,8.1,2.1,12v10H637.1z M654.8,477.7c-4.8,0-8.6,1.2-11.6,3.6c-3,2.4-4.9,5.2-5.8,8.4h34.8c-0.6-3.5-2.5-6.3-5.6-8.6
		C663.5,478.8,659.6,477.7,654.8,477.7z"/>
	<path fill="#0000FF" d="M735.1,483.6c0,2.4,1.2,4.1,3.7,5.1c2.5,1,7,1.9,13.5,2.6c7.5,0.8,13.7,3,18.4,6.8
		c4.8,3.7,7.1,8.9,7.1,15.5v0.9c0,7.3-2.7,13.2-8,17.5c-5.4,4.4-12.9,6.5-22.6,6.5c-5.8,0-10.7-0.7-14.7-2.2
		c-4.1-1.5-7.4-3.3-10.1-5.6c-2.7-2.2-4.7-4.7-6.2-7.4c-1.4-2.7-2.4-5.4-2.9-8l17.2-5.6c0.8,3.2,2.5,5.9,5,8.3s6.4,3.6,11.7,3.6
		c4.7,0,7.9-0.7,9.6-2.2c1.7-1.4,2.6-3,2.6-4.7c0-1-0.2-1.9-0.7-2.8c-0.4-0.8-1.3-1.6-2.5-2.4c-1.2-0.7-2.8-1.4-4.8-1.9
		c-2-0.5-4.6-0.9-7.7-1.2c-8.3-0.7-14.9-2.8-19.8-6.5c-4.9-3.6-7.4-8.9-7.4-16v-0.9c0-3.7,0.8-6.9,2.4-9.7c1.6-2.8,3.7-5.1,6.2-7.1
		c2.6-1.9,5.5-3.4,8.9-4.4c3.4-1,6.8-1.5,10.4-1.5c4.7,0,8.7,0.6,12.1,1.7c3.4,1.1,6.3,2.6,8.7,4.5c2.4,1.8,4.3,3.9,5.8,6.1
		c1.5,2.2,2.6,4.4,3.4,6.5l-16.9,6.8c-0.9-2.7-2.4-4.8-4.6-6.3c-2.2-1.5-5-2.3-8.5-2.3c-3.2,0-5.6,0.6-7.1,1.7
		C735.9,480.5,735.1,482,735.1,483.6z"/>
	<path fill="#0000FF" d="M826.1,483.6c0,2.4,1.2,4.1,3.7,5.1c2.5,1,7,1.9,13.5,2.6c7.5,0.8,13.7,3,18.4,6.8
		c4.8,3.7,7.1,8.9,7.1,15.5v0.9c0,7.3-2.7,13.2-8,17.5c-5.4,4.4-12.9,6.5-22.6,6.5c-5.8,0-10.7-0.7-14.7-2.2
		c-4.1-1.5-7.4-3.3-10.1-5.6c-2.7-2.2-4.7-4.7-6.2-7.4c-1.4-2.7-2.4-5.4-2.9-8l17.2-5.6c0.8,3.2,2.5,5.9,5,8.3s6.4,3.6,11.7,3.6
		c4.7,0,7.9-0.7,9.6-2.2c1.7-1.4,2.6-3,2.6-4.7c0-1-0.2-1.9-0.7-2.8c-0.4-0.8-1.3-1.6-2.5-2.4c-1.2-0.7-2.8-1.4-4.8-1.9
		c-2-0.5-4.6-0.9-7.7-1.2c-8.3-0.7-14.9-2.8-19.8-6.5c-4.9-3.6-7.4-8.9-7.4-16v-0.9c0-3.7,0.8-6.9,2.4-9.7c1.6-2.8,3.7-5.1,6.2-7.1
		c2.6-1.9,5.5-3.4,8.9-4.4c3.4-1,6.8-1.5,10.4-1.5c4.7,0,8.7,0.6,12.1,1.7c3.4,1.1,6.3,2.6,8.7,4.5c2.4,1.8,4.3,3.9,5.8,6.1
		c1.5,2.2,2.6,4.4,3.4,6.5l-16.9,6.8c-0.9-2.7-2.4-4.8-4.6-6.3c-2.2-1.5-5-2.3-8.5-2.3c-3.2,0-5.6,0.6-7.1,1.7
		C826.9,480.5,826.1,482,826.1,483.6z"/>
	<path fill="#0000FF" d="M894.9,518.7h25v-38.1h-23.2v-17.8h41.9v55.9H960v17.8h-65.1V518.7z M943.2,441c0,2-0.4,3.8-1.1,5.6
		c-0.7,1.7-1.8,3.2-3,4.5c-1.3,1.2-2.8,2.2-4.5,3c-1.7,0.7-3.5,1.1-5.4,1.1c-2,0-3.8-0.4-5.5-1.1c-1.7-0.7-3.2-1.7-4.5-3
		c-1.3-1.2-2.3-2.7-3-4.5c-0.7-1.7-1.1-3.6-1.1-5.6c0-2,0.4-3.8,1.1-5.6c0.7-1.7,1.8-3.2,3-4.5c1.3-1.2,2.8-2.2,4.5-3
		c1.7-0.7,3.5-1.1,5.5-1.1c1.9,0,3.7,0.4,5.4,1.1c1.7,0.7,3.2,1.7,4.5,3c1.3,1.2,2.3,2.7,3,4.5C942.9,437.1,943.2,439,943.2,441z"/>
	<path fill="#0000FF" d="M1003.3,536.6h-18.7v-73.7h18.7v11h2.7c1.7-4.2,4.4-7.4,8.2-9.7c3.8-2.3,8.2-3.4,13.2-3.4
		c3.6,0,6.9,0.6,10,1.7c3.1,1.1,5.9,2.9,8.3,5.3c2.4,2.4,4.2,5.4,5.6,9.1c1.3,3.7,2,8,2,13.1v46.7h-18.7v-41.9
		c0-5.3-1.3-9.4-3.8-12.4c-2.5-3-6.2-4.5-10.9-4.5c-5.6,0-9.7,1.9-12.4,5.6c-2.7,3.7-4.1,8.7-4.1,14.9V536.6z"/>
	<path fill="#0000FF" d="M1128.2,525.9h-2.7c-0.8,1.7-1.8,3.3-2.9,4.8c-1.1,1.5-2.6,2.9-4.5,4.1c-1.8,1.2-4,2.1-6.5,2.8
		c-2.5,0.7-5.6,1-9.1,1c-4.6,0-8.8-0.8-12.7-2.5c-3.9-1.6-7.3-4.1-10.3-7.3c-2.9-3.2-5.2-7.2-6.8-11.8c-1.6-4.7-2.5-10-2.5-16.1
		v-2.7c0-5.9,0.9-11.2,2.6-15.9c1.7-4.7,4.1-8.6,7.1-11.8c3-3.2,6.5-5.7,10.6-7.4c4-1.7,8.3-2.5,12.7-2.5c5.9,0,10.7,1.1,14.1,3.3
		c3.5,2.2,6.2,5.4,8.2,9.4h2.7v-10.7h18.7v91.9c0,3.4-1.1,6.1-3.2,8.3c-2.1,2.2-4.9,3.3-8.3,3.3h-49.7v-17.8h38.4c2.7,0,4-1.5,4-4.5
		V525.9z M1108.6,520.8c5.8,0,10.6-1.9,14.2-5.6c3.6-3.7,5.4-8.6,5.4-14.6v-1.8c0-6-1.8-10.9-5.4-14.6c-3.6-3.7-8.4-5.6-14.2-5.6
		c-5.8,0-10.6,1.8-14.2,5.4c-3.6,3.6-5.4,8.5-5.4,14.8v1.8c0,6.2,1.8,11.2,5.4,14.8C1098,519,1102.7,520.8,1108.6,520.8z"/>
</g>
</svg>
