<?xml version="1.0" encoding="utf-8"?>
<!-- Generator: Adobe Illustrator 18.1.0, SVG Export Plug-In . SVG Version: 6.00 Build 0)  -->
<svg version="1.1" id="Layer_1" xmlns="http://www.w3.org/2000/svg" xmlns:xlink="http://www.w3.org/1999/xlink" x="0px" y="0px"
	 viewBox="599.1 282.6 200 200" enable-background="new 599.1 282.6 200 200" xml:space="preserve">
<rect x="600" y="0" fill="none" stroke="#0000FF" stroke-width="12.5" stroke-miterlimit="10" width="200" height="200"/>
<g>
	<g>
		<path fill="#0000FF" d="M690.2,90.3h-16.7l-2.4,10.5h-9.7l11.7-49h17.4l11.7,49h-9.7L690.2,90.3z M675.5,81.5h12.7l-5.7-25.1h-1.3
			L675.5,81.5z"/>
		<path fill="#0000FF" d="M709.3,92.4h11.8V74.5h-10.9v-8.4h19.7v26.3H740v8.4h-30.7V92.4z M732.1,55.8c0,0.9-0.2,1.8-0.5,2.6
			c-0.4,0.8-0.8,1.5-1.4,2.1c-0.6,0.6-1.3,1.1-2.1,1.4c-0.8,0.3-1.7,0.5-2.6,0.5c-0.9,0-1.8-0.2-2.6-0.5c-0.8-0.4-1.5-0.8-2.1-1.4
			c-0.6-0.6-1.1-1.3-1.4-2.1c-0.4-0.8-0.5-1.7-0.5-2.6c0-0.9,0.2-1.8,0.5-2.6c0.3-0.8,0.8-1.5,1.4-2.1c0.6-0.6,1.3-1.1,2.1-1.4
			c0.8-0.4,1.7-0.5,2.6-0.5c0.9,0,1.7,0.2,2.6,0.5c0.8,0.3,1.5,0.8,2.1,1.4c0.6,0.6,1.1,1.3,1.4,2.1C731.9,54,732.1,54.9,732.1,55.8
			z"/>
	</g>
	<g>
		<line fill="none" stroke="#0000FF" stroke-width="10" stroke-miterlimit="10" x1="655" y1="130.8" x2="665" y2="130.8"/>
		<line fill="none" stroke="#0000FF" stroke-width="10" stroke-miterlimit="10" x1="675" y1="130.8" x2="685" y2="130.8"/>
		<line fill="none" stroke="#0000FF" stroke-width="10" stroke-miterlimit="10" x1="695" y1="130.8" x2="705" y2="130.8"/>
		<line fill="none" stroke="#0000FF" stroke-width="10" stroke-miterlimit="10" x1="715" y1="130.8" x2="725" y2="130.8"/>
		<line fill="none" stroke="#0000FF" stroke-width="10" stroke-miterlimit="10" x1="735" y1="130.8" x2="745" y2="130.8"/>
		<line fill="none" stroke="#0000FF" stroke-width="10" stroke-miterlimit="10" x1="655" y1="150.8" x2="665" y2="150.8"/>
		<line fill="none" stroke="#0000FF" stroke-width="10" stroke-miterlimit="10" x1="675" y1="150.8" x2="685" y2="150.8"/>
		<line fill="none" stroke="#0000FF" stroke-width="10" stroke-miterlimit="10" x1="695" y1="150.8" x2="705" y2="150.8"/>
		<line fill="none" stroke="#0000FF" stroke-width="10" stroke-miterlimit="10" x1="715" y1="150.8" x2="725" y2="150.8"/>
		
			<line opacity="0.3" fill="none" stroke="#0000FF" stroke-width="10" stroke-miterlimit="10" x1="735" y1="150.8" x2="745" y2="150.8"/>
	</g>
</g>
<rect x="870" y="0" fill="none" stroke="#0000FF" stroke-width="12.5" stroke-miterlimit="10" width="200" height="200"/>
<g>
	<g>
		<path fill="#0000FF" d="M960.2,90.3h-16.7l-2.4,10.5h-9.7l11.7-49h17.4l11.7,49h-9.7L960.2,90.3z M945.5,81.5h12.7l-5.7-25.1h-1.3
			L945.5,81.5z"/>
		<path fill="#0000FF" d="M979.3,92.4h11.8V74.5h-10.9v-8.4h19.7v26.3h10.1v8.4h-30.7V92.4z M1002.1,55.8c0,0.9-0.2,1.8-0.5,2.6
			c-0.4,0.8-0.8,1.5-1.4,2.1c-0.6,0.6-1.3,1.1-2.1,1.4c-0.8,0.3-1.7,0.5-2.6,0.5c-0.9,0-1.8-0.2-2.6-0.5c-0.8-0.4-1.5-0.8-2.1-1.4
			c-0.6-0.6-1.1-1.3-1.4-2.1c-0.4-0.8-0.5-1.7-0.5-2.6c0-0.9,0.2-1.8,0.5-2.6c0.3-0.8,0.8-1.5,1.4-2.1c0.6-0.6,1.3-1.1,2.1-1.4
			c0.8-0.4,1.7-0.5,2.6-0.5c0.9,0,1.7,0.2,2.6,0.5c0.8,0.3,1.5,0.8,2.1,1.4c0.6,0.6,1.1,1.3,1.4,2.1
			C1001.9,54,1002.1,54.9,1002.1,55.8z"/>
	</g>
	<g>
		<line fill="none" stroke="#0000FF" stroke-width="10" stroke-miterlimit="10" x1="925" y1="130.8" x2="935" y2="130.8"/>
		<line fill="none" stroke="#0000FF" stroke-width="10" stroke-miterlimit="10" x1="945" y1="130.8" x2="955" y2="130.8"/>
		<line fill="none" stroke="#0000FF" stroke-width="10" stroke-miterlimit="10" x1="965" y1="130.8" x2="975" y2="130.8"/>
		<line fill="none" stroke="#0000FF" stroke-width="10" stroke-miterlimit="10" x1="985" y1="130.8" x2="995" y2="130.8"/>
		<line fill="none" stroke="#0000FF" stroke-width="10" stroke-miterlimit="10" x1="1005" y1="130.8" x2="1015" y2="130.8"/>
		<line fill="none" stroke="#0000FF" stroke-width="10" stroke-miterlimit="10" x1="925" y1="150.8" x2="935" y2="150.8"/>
		<line fill="none" stroke="#0000FF" stroke-width="10" stroke-miterlimit="10" x1="945" y1="150.8" x2="955" y2="150.8"/>
		<line fill="none" stroke="#0000FF" stroke-width="10" stroke-miterlimit="10" x1="965" y1="150.8" x2="975" y2="150.8"/>
		<line fill="none" stroke="#0000FF" stroke-width="10" stroke-miterlimit="10" x1="985" y1="150.8" x2="995" y2="150.8"/>
		
			<line opacity="0.3" fill="none" stroke="#0000FF" stroke-width="10" stroke-miterlimit="10" x1="1005" y1="150.8" x2="1015" y2="150.8"/>
	</g>
</g>
<rect x="1170" y="0" fill="none" stroke="#0000FF" stroke-width="12.5" stroke-miterlimit="10" width="200" height="200"/>
<g>
	<g>
		<path fill="#0000FF" d="M1260.2,90.3h-16.7l-2.4,10.5h-9.7l11.7-49h17.4l11.7,49h-9.7L1260.2,90.3z M1245.5,81.5h12.7l-5.7-25.1
			h-1.3L1245.5,81.5z"/>
		<path fill="#0000FF" d="M1279.3,92.4h11.8V74.5h-10.9v-8.4h19.7v26.3h10.1v8.4h-30.7V92.4z M1302.1,55.8c0,0.9-0.2,1.8-0.5,2.6
			c-0.4,0.8-0.8,1.5-1.4,2.1c-0.6,0.6-1.3,1.1-2.1,1.4c-0.8,0.3-1.7,0.5-2.6,0.5c-0.9,0-1.8-0.2-2.6-0.5c-0.8-0.4-1.5-0.8-2.1-1.4
			c-0.6-0.6-1.1-1.3-1.4-2.1c-0.4-0.8-0.5-1.7-0.5-2.6c0-0.9,0.2-1.8,0.5-2.6c0.3-0.8,0.8-1.5,1.4-2.1c0.6-0.6,1.3-1.1,2.1-1.4
			c0.8-0.4,1.7-0.5,2.6-0.5c0.9,0,1.7,0.2,2.6,0.5c0.8,0.3,1.5,0.8,2.1,1.4c0.6,0.6,1.1,1.3,1.4,2.1
			C1301.9,54,1302.1,54.9,1302.1,55.8z"/>
	</g>
	<g>
		<line fill="none" stroke="#0000FF" stroke-width="10" stroke-miterlimit="10" x1="1225" y1="130.8" x2="1235" y2="130.8"/>
		<line fill="none" stroke="#0000FF" stroke-width="10" stroke-miterlimit="10" x1="1245" y1="130.8" x2="1255" y2="130.8"/>
		<line fill="none" stroke="#0000FF" stroke-width="10" stroke-miterlimit="10" x1="1265" y1="130.8" x2="1275" y2="130.8"/>
		<line fill="none" stroke="#0000FF" stroke-width="10" stroke-miterlimit="10" x1="1285" y1="130.8" x2="1295" y2="130.8"/>
		<line fill="none" stroke="#0000FF" stroke-width="10" stroke-miterlimit="10" x1="1305" y1="130.8" x2="1315" y2="130.8"/>
		<line fill="none" stroke="#0000FF" stroke-width="10" stroke-miterlimit="10" x1="1225" y1="150.8" x2="1235" y2="150.8"/>
		<line fill="none" stroke="#0000FF" stroke-width="10" stroke-miterlimit="10" x1="1245" y1="150.8" x2="1255" y2="150.8"/>
		<line fill="none" stroke="#0000FF" stroke-width="10" stroke-miterlimit="10" x1="1265" y1="150.8" x2="1275" y2="150.8"/>
		<line fill="none" stroke="#0000FF" stroke-width="10" stroke-miterlimit="10" x1="1285" y1="150.8" x2="1295" y2="150.8"/>
		
			<line opacity="0.3" fill="none" stroke="#0000FF" stroke-width="10" stroke-miterlimit="10" x1="1305" y1="150.8" x2="1315" y2="150.8"/>
	</g>
</g>
<rect x="1514" y="0" fill="none" stroke="#0000FF" stroke-width="12.5" stroke-miterlimit="10" width="200" height="200"/>
<g>
	<g>
		<path fill="#0000FF" d="M1604.2,90.3h-16.7l-2.4,10.5h-9.7l11.7-49h17.4l11.7,49h-9.7L1604.2,90.3z M1589.5,81.5h12.7l-5.7-25.1
			h-1.3L1589.5,81.5z"/>
		<path fill="#0000FF" d="M1623.3,92.4h11.8V74.5h-10.9v-8.4h19.7v26.3h10.1v8.4h-30.7V92.4z M1646.1,55.8c0,0.9-0.2,1.8-0.5,2.6
			c-0.4,0.8-0.8,1.5-1.4,2.1c-0.6,0.6-1.3,1.1-2.1,1.4c-0.8,0.3-1.7,0.5-2.6,0.5c-0.9,0-1.8-0.2-2.6-0.5c-0.8-0.4-1.5-0.8-2.1-1.4
			c-0.6-0.6-1.1-1.3-1.4-2.1c-0.4-0.8-0.5-1.7-0.5-2.6c0-0.9,0.2-1.8,0.5-2.6c0.3-0.8,0.8-1.5,1.4-2.1c0.6-0.6,1.3-1.1,2.1-1.4
			c0.8-0.4,1.7-0.5,2.6-0.5c0.9,0,1.7,0.2,2.6,0.5c0.8,0.3,1.5,0.8,2.1,1.4c0.6,0.6,1.1,1.3,1.4,2.1
			C1645.9,54,1646.1,54.9,1646.1,55.8z"/>
	</g>
	<g>
		<line fill="none" stroke="#0000FF" stroke-width="10" stroke-miterlimit="10" x1="1569" y1="130.8" x2="1579" y2="130.8"/>
		<line fill="none" stroke="#0000FF" stroke-width="10" stroke-miterlimit="10" x1="1589" y1="130.8" x2="1599" y2="130.8"/>
		<line fill="none" stroke="#0000FF" stroke-width="10" stroke-miterlimit="10" x1="1609" y1="130.8" x2="1619" y2="130.8"/>
		<line fill="none" stroke="#0000FF" stroke-width="10" stroke-miterlimit="10" x1="1629" y1="130.8" x2="1639" y2="130.8"/>
		<line fill="none" stroke="#0000FF" stroke-width="10" stroke-miterlimit="10" x1="1649" y1="130.8" x2="1659" y2="130.8"/>
		<line fill="none" stroke="#0000FF" stroke-width="10" stroke-miterlimit="10" x1="1569" y1="150.8" x2="1579" y2="150.8"/>
		<line fill="none" stroke="#0000FF" stroke-width="10" stroke-miterlimit="10" x1="1589" y1="150.8" x2="1599" y2="150.8"/>
		<line fill="none" stroke="#0000FF" stroke-width="10" stroke-miterlimit="10" x1="1609" y1="150.8" x2="1619" y2="150.8"/>
		<line fill="none" stroke="#0000FF" stroke-width="10" stroke-miterlimit="10" x1="1629" y1="150.8" x2="1639" y2="150.8"/>
		
			<line opacity="0.3" fill="none" stroke="#0000FF" stroke-width="10" stroke-miterlimit="10" x1="1649" y1="150.8" x2="1659" y2="150.8"/>
	</g>
</g>
<rect x="599.1" y="282.6" fill="none" stroke="#0000FF" stroke-width="12.5" stroke-miterlimit="10" width="200" height="200"/>
<g>
	<g>
		<path fill="#0000FF" d="M689.3,372.9h-16.7l-2.4,10.5h-9.7l11.7-49h17.4l11.7,49h-9.7L689.3,372.9z M674.6,364.1h12.7l-5.7-25.1
			h-1.3L674.6,364.1z"/>
		<path fill="#0000FF" d="M708.4,375h11.8v-17.9h-10.9v-8.4H729V375h10.1v8.4h-30.7V375z M731.2,338.4c0,0.9-0.2,1.8-0.5,2.6
			c-0.4,0.8-0.8,1.5-1.4,2.1c-0.6,0.6-1.3,1.1-2.1,1.4c-0.8,0.3-1.7,0.5-2.6,0.5c-0.9,0-1.8-0.2-2.6-0.5c-0.8-0.4-1.5-0.8-2.1-1.4
			c-0.6-0.6-1.1-1.3-1.4-2.1c-0.4-0.8-0.5-1.7-0.5-2.6c0-0.9,0.2-1.8,0.5-2.6c0.3-0.8,0.8-1.5,1.4-2.1c0.6-0.6,1.3-1.1,2.1-1.4
			c0.8-0.4,1.7-0.5,2.6-0.5c0.9,0,1.7,0.2,2.6,0.5c0.8,0.3,1.5,0.8,2.1,1.4c0.6,0.6,1.1,1.3,1.4,2.1
			C731,336.6,731.2,337.5,731.2,338.4z"/>
	</g>
	<g>
		<line fill="none" stroke="#0000FF" stroke-width="10" stroke-miterlimit="10" x1="654.1" y1="413.4" x2="664.1" y2="413.4"/>
		<line fill="none" stroke="#0000FF" stroke-width="10" stroke-miterlimit="10" x1="674.1" y1="413.4" x2="684.1" y2="413.4"/>
		<line fill="none" stroke="#0000FF" stroke-width="10" stroke-miterlimit="10" x1="694.1" y1="413.4" x2="704.1" y2="413.4"/>
		<line fill="none" stroke="#0000FF" stroke-width="10" stroke-miterlimit="10" x1="714.1" y1="413.4" x2="724.1" y2="413.4"/>
		<line fill="none" stroke="#0000FF" stroke-width="10" stroke-miterlimit="10" x1="734.1" y1="413.4" x2="744.1" y2="413.4"/>
		<line fill="none" stroke="#0000FF" stroke-width="10" stroke-miterlimit="10" x1="654.1" y1="433.4" x2="664.1" y2="433.4"/>
		<line fill="none" stroke="#0000FF" stroke-width="10" stroke-miterlimit="10" x1="674.1" y1="433.4" x2="684.1" y2="433.4"/>
		<line fill="none" stroke="#0000FF" stroke-width="10" stroke-miterlimit="10" x1="694.1" y1="433.4" x2="704.1" y2="433.4"/>
		<line fill="none" stroke="#0000FF" stroke-width="10" stroke-miterlimit="10" x1="714.1" y1="433.4" x2="724.1" y2="433.4"/>
		
			<line opacity="0.3" fill="none" stroke="#0000FF" stroke-width="10" stroke-miterlimit="10" x1="734.1" y1="433.4" x2="744.1" y2="433.4"/>
	</g>
</g>
<rect x="863.7" y="282.6" fill="none" stroke="#0000FF" stroke-width="12.5" stroke-miterlimit="10" width="200" height="200"/>
<g>
	<g>
		<path fill="#0000FF" d="M953.8,372.9h-16.7l-2.4,10.5h-9.7l11.7-49h17.4l11.7,49h-9.7L953.8,372.9z M939.1,364.1h12.7l-5.7-25.1
			h-1.3L939.1,364.1z"/>
		<path fill="#0000FF" d="M973,375h11.8v-17.9h-10.9v-8.4h19.7V375h10.1v8.4H973V375z M995.8,338.4c0,0.9-0.2,1.8-0.5,2.6
			c-0.4,0.8-0.8,1.5-1.4,2.1c-0.6,0.6-1.3,1.1-2.1,1.4c-0.8,0.3-1.7,0.5-2.6,0.5c-0.9,0-1.8-0.2-2.6-0.5c-0.8-0.4-1.5-0.8-2.1-1.4
			c-0.6-0.6-1.1-1.3-1.4-2.1c-0.4-0.8-0.5-1.7-0.5-2.6c0-0.9,0.2-1.8,0.5-2.6c0.3-0.8,0.8-1.5,1.4-2.1c0.6-0.6,1.3-1.1,2.1-1.4
			c0.8-0.4,1.7-0.5,2.6-0.5c0.9,0,1.7,0.2,2.6,0.5c0.8,0.3,1.5,0.8,2.1,1.4c0.6,0.6,1.1,1.3,1.4,2.1
			C995.6,336.6,995.8,337.5,995.8,338.4z"/>
	</g>
	<g>
		<line fill="none" stroke="#0000FF" stroke-width="10" stroke-miterlimit="10" x1="918.7" y1="413.4" x2="928.7" y2="413.4"/>
		<line fill="none" stroke="#0000FF" stroke-width="10" stroke-miterlimit="10" x1="938.7" y1="413.4" x2="948.7" y2="413.4"/>
		<line fill="none" stroke="#0000FF" stroke-width="10" stroke-miterlimit="10" x1="958.7" y1="413.4" x2="968.7" y2="413.4"/>
		<line fill="none" stroke="#0000FF" stroke-width="10" stroke-miterlimit="10" x1="978.7" y1="413.4" x2="988.7" y2="413.4"/>
		<line fill="none" stroke="#0000FF" stroke-width="10" stroke-miterlimit="10" x1="998.7" y1="413.4" x2="1008.7" y2="413.4"/>
		<line fill="none" stroke="#0000FF" stroke-width="10" stroke-miterlimit="10" x1="918.7" y1="433.4" x2="928.7" y2="433.4"/>
		<line fill="none" stroke="#0000FF" stroke-width="10" stroke-miterlimit="10" x1="938.7" y1="433.4" x2="948.7" y2="433.4"/>
		<line fill="none" stroke="#0000FF" stroke-width="10" stroke-miterlimit="10" x1="958.7" y1="433.4" x2="968.7" y2="433.4"/>
		<line fill="none" stroke="#0000FF" stroke-width="10" stroke-miterlimit="10" x1="978.7" y1="433.4" x2="988.7" y2="433.4"/>
		
			<line opacity="0.3" fill="none" stroke="#0000FF" stroke-width="10" stroke-miterlimit="10" x1="998.7" y1="433.4" x2="1008.7" y2="433.4"/>
	</g>
</g>
<rect x="1167.2" y="282.6" fill="none" stroke="#0000FF" stroke-width="12.5" stroke-miterlimit="10" width="200" height="200"/>
<g>
	<g>
		<path fill="#0000FF" d="M1257.4,372.9h-16.7l-2.4,10.5h-9.7l11.7-49h17.4l11.7,49h-9.7L1257.4,372.9z M1242.7,364.1h12.7
			l-5.7-25.1h-1.3L1242.7,364.1z"/>
		<path fill="#0000FF" d="M1276.6,375h11.8v-17.9h-10.9v-8.4h19.7V375h10.1v8.4h-30.7V375z M1299.3,338.4c0,0.9-0.2,1.8-0.5,2.6
			c-0.4,0.8-0.8,1.5-1.4,2.1c-0.6,0.6-1.3,1.1-2.1,1.4c-0.8,0.3-1.7,0.5-2.6,0.5c-0.9,0-1.8-0.2-2.6-0.5c-0.8-0.4-1.5-0.8-2.1-1.4
			c-0.6-0.6-1.1-1.3-1.4-2.1c-0.4-0.8-0.5-1.7-0.5-2.6c0-0.9,0.2-1.8,0.5-2.6c0.3-0.8,0.8-1.5,1.4-2.1c0.6-0.6,1.3-1.1,2.1-1.4
			c0.8-0.4,1.7-0.5,2.6-0.5c0.9,0,1.7,0.2,2.6,0.5c0.8,0.3,1.5,0.8,2.1,1.4c0.6,0.6,1.1,1.3,1.4,2.1
			C1299.1,336.6,1299.3,337.5,1299.3,338.4z"/>
	</g>
	<g>
		<line fill="none" stroke="#0000FF" stroke-width="10" stroke-miterlimit="10" x1="1222.2" y1="413.4" x2="1232.2" y2="413.4"/>
		<line fill="none" stroke="#0000FF" stroke-width="10" stroke-miterlimit="10" x1="1242.2" y1="413.4" x2="1252.2" y2="413.4"/>
		<line fill="none" stroke="#0000FF" stroke-width="10" stroke-miterlimit="10" x1="1262.2" y1="413.4" x2="1272.2" y2="413.4"/>
		<line fill="none" stroke="#0000FF" stroke-width="10" stroke-miterlimit="10" x1="1282.2" y1="413.4" x2="1292.2" y2="413.4"/>
		<line fill="none" stroke="#0000FF" stroke-width="10" stroke-miterlimit="10" x1="1302.2" y1="413.4" x2="1312.2" y2="413.4"/>
		<line fill="none" stroke="#0000FF" stroke-width="10" stroke-miterlimit="10" x1="1222.2" y1="433.4" x2="1232.2" y2="433.4"/>
		<line fill="none" stroke="#0000FF" stroke-width="10" stroke-miterlimit="10" x1="1242.2" y1="433.4" x2="1252.2" y2="433.4"/>
		<line fill="none" stroke="#0000FF" stroke-width="10" stroke-miterlimit="10" x1="1262.2" y1="433.4" x2="1272.2" y2="433.4"/>
		<line fill="none" stroke="#0000FF" stroke-width="10" stroke-miterlimit="10" x1="1282.2" y1="433.4" x2="1292.2" y2="433.4"/>
		
			<line opacity="0.3" fill="none" stroke="#0000FF" stroke-width="10" stroke-miterlimit="10" x1="1302.2" y1="433.4" x2="1312.2" y2="433.4"/>
	</g>
</g>
<rect x="1516.3" y="282.6" fill="none" stroke="#0000FF" stroke-width="12.5" stroke-miterlimit="10" width="200" height="200"/>
<g>
	<g>
		<path fill="#0000FF" d="M1606.4,372.9h-16.7l-2.4,10.5h-9.7l11.7-49h17.4l11.7,49h-9.7L1606.4,372.9z M1591.7,364.1h12.7
			l-5.7-25.1h-1.3L1591.7,364.1z"/>
		<path fill="#0000FF" d="M1625.6,375h11.8v-17.9h-10.9v-8.4h19.7V375h10.1v8.4h-30.7V375z M1648.4,338.4c0,0.9-0.2,1.8-0.5,2.6
			c-0.4,0.8-0.8,1.5-1.4,2.1c-0.6,0.6-1.3,1.1-2.1,1.4c-0.8,0.3-1.7,0.5-2.6,0.5c-0.9,0-1.8-0.2-2.6-0.5c-0.8-0.4-1.5-0.8-2.1-1.4
			c-0.6-0.6-1.1-1.3-1.4-2.1c-0.4-0.8-0.5-1.7-0.5-2.6c0-0.9,0.2-1.8,0.5-2.6c0.3-0.8,0.8-1.5,1.4-2.1c0.6-0.6,1.3-1.1,2.1-1.4
			c0.8-0.4,1.7-0.5,2.6-0.5c0.9,0,1.7,0.2,2.6,0.5c0.8,0.3,1.5,0.8,2.1,1.4c0.6,0.6,1.1,1.3,1.4,2.1
			C1648.2,336.6,1648.4,337.5,1648.4,338.4z"/>
	</g>
	<g>
		<line fill="none" stroke="#0000FF" stroke-width="10" stroke-miterlimit="10" x1="1571.3" y1="413.4" x2="1581.3" y2="413.4"/>
		<line fill="none" stroke="#0000FF" stroke-width="10" stroke-miterlimit="10" x1="1591.3" y1="413.4" x2="1601.3" y2="413.4"/>
		<line fill="none" stroke="#0000FF" stroke-width="10" stroke-miterlimit="10" x1="1611.3" y1="413.4" x2="1621.3" y2="413.4"/>
		<line fill="none" stroke="#0000FF" stroke-width="10" stroke-miterlimit="10" x1="1631.3" y1="413.4" x2="1641.3" y2="413.4"/>
		<line fill="none" stroke="#0000FF" stroke-width="10" stroke-miterlimit="10" x1="1651.3" y1="413.4" x2="1661.3" y2="413.4"/>
		<line fill="none" stroke="#0000FF" stroke-width="10" stroke-miterlimit="10" x1="1571.3" y1="433.4" x2="1581.3" y2="433.4"/>
		<line fill="none" stroke="#0000FF" stroke-width="10" stroke-miterlimit="10" x1="1591.3" y1="433.4" x2="1601.3" y2="433.4"/>
		<line fill="none" stroke="#0000FF" stroke-width="10" stroke-miterlimit="10" x1="1611.3" y1="433.4" x2="1621.3" y2="433.4"/>
		<line fill="none" stroke="#0000FF" stroke-width="10" stroke-miterlimit="10" x1="1631.3" y1="433.4" x2="1641.3" y2="433.4"/>
		
			<line opacity="0.3" fill="none" stroke="#0000FF" stroke-width="10" stroke-miterlimit="10" x1="1651.3" y1="433.4" x2="1661.3" y2="433.4"/>
	</g>
</g>
<rect x="918" y="-72" fill="none" width="106" height="60"/>
<text transform="matrix(1 0 0 1 928.1602 -23)" font-family="'SpaceMono-Bold'" font-size="70">Ps</text>
<rect x="660" y="214" fill="none" width="106" height="60"/>
<text transform="matrix(1 0 0 1 670.1602 263)" font-family="'SpaceMono-Bold'" font-size="70">Ae</text>
<rect x="917" y="214" fill="none" width="106" height="60"/>
<text transform="matrix(1 0 0 1 948.5801 263)" font-family="'SpaceMono-Bold'" font-size="70">P</text>
<rect x="1213" y="214" fill="none" width="106" height="72"/>
<text transform="matrix(1 0 0 1 1241.5195 228)"><tspan x="0" y="0" font-family="'SpaceMono-Bold'" font-size="20">HTML</tspan><tspan x="6.1" y="24" font-family="'SpaceMono-Bold'" font-size="20">CSS</tspan><tspan x="12.2" y="48" font-family="'SpaceMono-Bold'" font-size="20">JS</tspan></text>
<rect x="1212" y="-72" fill="none" width="106" height="60"/>
<text transform="matrix(1 0 0 1 1222.1602 -23)" font-family="'SpaceMono-Bold'" font-size="70">In</text>
<rect x="1540" y="-72" fill="none" width="106" height="60"/>
<text transform="matrix(1 0 0 1 1550.1602 -23)" font-family="'SpaceMono-Bold'" font-size="70">Pr</text>
<rect x="1564" y="196" fill="none" width="106" height="60"/>
<text transform="matrix(1 0 0 1 1571.0996 217)"><tspan x="0" y="0" font-family="'SpaceMono-Bold'" font-size="30">Invi</tspan><tspan x="73.4" y="0" font-family="'SpaceMono-Bold'" font-size="30">-</tspan><tspan x="9.2" y="36" font-family="'SpaceMono-Bold'" font-size="30">sion</tspan></text>
</svg>
