<?xml version="1.0" encoding="utf-8"?>
<!-- Generator: Adobe Illustrator 18.1.0, SVG Export Plug-In . SVG Version: 6.00 Build 0)  -->
<svg version="1.1" id="Layer_1" xmlns="http://www.w3.org/2000/svg" xmlns:xlink="http://www.w3.org/1999/xlink" x="0px" y="0px"
	 viewBox="0 0 1400 1400" enable-background="new 0 0 1400 1400" xml:space="preserve">
<g>
	<line fill="none" stroke="#0000FF" stroke-width="70" stroke-miterlimit="10" x1="387.8" y1="875.8" x2="457.2" y2="875.8"/>
	<line fill="none" stroke="#0000FF" stroke-width="70" stroke-miterlimit="10" x1="526.6" y1="875.8" x2="595.9" y2="875.8"/>
	<line fill="none" stroke="#0000FF" stroke-width="70" stroke-miterlimit="10" x1="665.3" y1="875.8" x2="734.7" y2="875.8"/>
	<line fill="none" stroke="#0000FF" stroke-width="70" stroke-miterlimit="10" x1="804.1" y1="875.8" x2="873.5" y2="875.8"/>
	<line fill="none" stroke="#0000FF" stroke-width="70" stroke-miterlimit="10" x1="942.8" y1="875.8" x2="1012.2" y2="875.8"/>
	<line fill="none" stroke="#0000FF" stroke-width="70" stroke-miterlimit="10" x1="387.8" y1="1014.6" x2="457.2" y2="1014.6"/>
	<line fill="none" stroke="#0000FF" stroke-width="70" stroke-miterlimit="10" x1="526.6" y1="1014.6" x2="595.9" y2="1014.6"/>
	<line fill="none" stroke="#0000FF" stroke-width="70" stroke-miterlimit="10" x1="665.3" y1="1014.6" x2="734.7" y2="1014.6"/>
	
		<line opacity="0.3" fill="none" stroke="#0000FF" stroke-width="70" stroke-miterlimit="10" enable-background="new    " x1="804.1" y1="1014.6" x2="873.5" y2="1014.6"/>
	
		<line opacity="0.3" fill="none" stroke="#0000FF" stroke-width="70" stroke-miterlimit="10" enable-background="new    " x1="942.8" y1="1014.6" x2="1012.2" y2="1014.6"/>
</g>
<g enable-background="new    ">
	<path fill="#0000FF" d="M535.7,489.5h-35.4l-5.1,22.3h-20.5l24.8-104.1h36.9l24.8,104.1h-20.5L535.7,489.5z M504.5,470.8h26.9
		l-12-53.2h-2.7L504.5,470.8z"/>
	<path fill="#0000FF" d="M628,501.1h-2.7c-0.8,1.7-1.8,3.3-2.9,4.8c-1.1,1.5-2.6,2.9-4.5,4.1c-1.8,1.2-4,2.1-6.5,2.8
		c-2.5,0.7-5.6,1-9.1,1c-4.6,0-8.8-0.8-12.7-2.5c-3.9-1.6-7.3-4.1-10.3-7.3c-2.9-3.2-5.2-7.2-6.8-11.8c-1.6-4.7-2.5-10-2.5-16.1
		v-2.7c0-5.9,0.9-11.2,2.6-15.9c1.7-4.7,4.1-8.6,7.1-11.8c3-3.2,6.5-5.7,10.6-7.4c4-1.7,8.3-2.5,12.7-2.5c5.9,0,10.7,1.1,14.1,3.3
		c3.5,2.2,6.2,5.4,8.2,9.4h2.7v-41h18.7v104.1H628V501.1z M608.4,496c5.8,0,10.6-1.9,14.2-5.6c3.6-3.7,5.4-8.6,5.4-14.6V474
		c0-6-1.8-10.9-5.4-14.6c-3.6-3.7-8.4-5.6-14.2-5.6c-5.8,0-10.6,1.8-14.2,5.4c-3.6,3.6-5.4,8.5-5.4,14.8v1.8
		c0,6.2,1.8,11.2,5.4,14.8C597.8,494.2,602.6,496,608.4,496z"/>
	<path fill="#0000FF" d="M738.4,475.8c0,6.1-1,11.6-3.1,16.3c-2.1,4.7-4.9,8.7-8.5,11.9c-3.6,3.2-7.7,5.7-12.3,7.4
		c-4.6,1.7-9.4,2.5-14.5,2.5c-5.1,0-9.9-0.8-14.5-2.5c-4.6-1.7-8.7-4.1-12.3-7.4c-3.6-3.2-6.4-7.2-8.5-11.9
		c-2.1-4.7-3.1-10.1-3.1-16.3V474c0-6,1-11.4,3.1-16.1c2.1-4.7,4.9-8.7,8.5-12c3.6-3.3,7.7-5.7,12.3-7.4c4.6-1.7,9.4-2.5,14.5-2.5
		c5.1,0,9.9,0.8,14.5,2.5c4.6,1.7,8.7,4.2,12.3,7.4c3.6,3.3,6.4,7.3,8.5,12c2.1,4.7,3.1,10.1,3.1,16.1V475.8z M700,496
		c2.7,0,5.2-0.4,7.6-1.3s4.5-2.2,6.2-3.9c1.8-1.7,3.2-3.7,4.2-6.2c1-2.4,1.6-5.2,1.6-8.3v-3c0-3.1-0.5-5.8-1.6-8.3
		c-1-2.4-2.5-4.5-4.2-6.2c-1.8-1.7-3.9-3-6.2-3.9c-2.4-0.9-4.9-1.3-7.6-1.3c-2.7,0-5.2,0.4-7.6,1.3c-2.4,0.9-4.5,2.2-6.2,3.9
		c-1.8,1.7-3.2,3.7-4.2,6.2c-1,2.4-1.6,5.2-1.6,8.3v3c0,3.1,0.5,5.8,1.6,8.3c1,2.4,2.5,4.5,4.2,6.2c1.8,1.7,3.9,3,6.2,3.9
		C694.8,495.6,697.3,496,700,496z"/>
	<path fill="#0000FF" d="M772.7,511.8H754V407.7h18.7v41h2.7c2-4.1,4.9-7.2,8.6-9.4c3.8-2.2,8.6-3.3,14.4-3.3
		c4.4,0,8.5,0.8,12.4,2.5c3.9,1.7,7.3,4.1,10.3,7.4c2.9,3.2,5.3,7.2,7,11.8c1.7,4.7,2.6,10,2.6,15.9v2.7c0,6-0.8,11.4-2.5,16.1
		c-1.7,4.7-4,8.6-6.8,11.8c-2.9,3.2-6.3,5.6-10.2,7.3c-3.9,1.6-8.2,2.5-12.7,2.5c-3.4,0-6.3-0.3-8.8-1c-2.5-0.7-4.6-1.6-6.5-2.8
		c-1.8-1.2-3.4-2.6-4.6-4.1c-1.2-1.5-2.3-3.1-3.2-4.8h-2.7V511.8z M792.3,496c5.8,0,10.6-1.8,14.2-5.4c3.6-3.6,5.4-8.5,5.4-14.8V474
		c0-6.2-1.8-11.2-5.4-14.8c-3.6-3.6-8.4-5.4-14.2-5.4c-5.8,0-10.6,1.9-14.2,5.6c-3.6,3.7-5.4,8.6-5.4,14.6v1.8
		c0,6,1.8,10.9,5.4,14.6C781.7,494.2,786.5,496,792.3,496z"/>
	<path fill="#0000FF" d="M864.6,481c0.1,2.2,0.6,4.2,1.6,6c0.9,1.8,2.2,3.4,3.9,4.8c1.6,1.3,3.5,2.4,5.6,3.1
		c2.1,0.7,4.4,1.1,6.8,1.1c4.7,0,8.2-0.8,10.7-2.5c2.5-1.6,4.3-3.6,5.4-5.9l16.1,8.9c-0.9,1.9-2.1,3.8-3.7,5.9
		c-1.6,2-3.6,3.9-6.2,5.6c-2.5,1.7-5.6,3.1-9.2,4.2c-3.6,1.1-7.9,1.6-12.7,1.6c-5.6,0-10.6-0.9-15.2-2.7c-4.6-1.8-8.5-4.4-11.8-7.7
		c-3.3-3.4-5.9-7.5-7.7-12.3c-1.8-4.9-2.8-10.4-2.8-16.5v-0.9c0-5.6,1-10.8,2.9-15.5c1.9-4.7,4.6-8.6,8-11.9
		c3.4-3.3,7.3-5.8,11.8-7.7c4.5-1.8,9.3-2.8,14.5-2.8c6.3,0,11.8,1.1,16.4,3.3c4.6,2.2,8.3,5.1,11.3,8.5c3,3.4,5.2,7.2,6.5,11.3
		c1.4,4.1,2.1,8.1,2.1,12v10H864.6z M882.3,452.9c-4.8,0-8.6,1.2-11.6,3.6c-3,2.4-4.9,5.2-5.8,8.4h34.8c-0.6-3.5-2.5-6.3-5.6-8.6
		C891,454.1,887,452.9,882.3,452.9z"/>
</g>
<g enable-background="new    ">
	<path fill="#0000FF" d="M320.9,651v39.2h-19.6V586.1H342c5.4,0,10,0.9,14,2.6c4,1.7,7.3,4,9.9,6.8c2.6,2.8,4.6,6,5.9,9.7
		c1.3,3.6,2,7.3,2,11.1v3.6c0,3.9-0.7,7.7-2,11.4c-1.3,3.7-3.3,7-5.9,10c-2.6,2.9-5.9,5.3-9.9,7.1c-4,1.8-8.6,2.7-14,2.7H320.9z
		 M320.9,632.2h19.2c4.4,0,7.8-1.2,10.3-3.6c2.5-2.4,3.8-5.4,3.8-9.2v-1.8c0-3.8-1.3-6.8-3.8-9.2c-2.5-2.4-6-3.6-10.3-3.6h-19.2
		V632.2z"/>
	<path fill="#0000FF" d="M412.2,690.2h-18.7V586.1h18.7v42.2h2.7c1.9-4.5,4.7-7.9,8.3-10.3c3.7-2.4,8.2-3.6,13.5-3.6
		c3.7,0,7,0.6,10.1,1.8c3.1,1.2,5.7,3,8,5.4c2.3,2.4,4.1,5.4,5.4,9.1c1.3,3.7,1.9,8.1,1.9,13.2v46.4h-18.7v-41.9
		c0-5.3-1.3-9.4-3.8-12.4c-2.5-3-6.2-4.5-10.9-4.5c-5.6,0-9.7,1.9-12.4,5.6c-2.7,3.7-4.1,8.7-4.1,14.9V690.2z"/>
	<path fill="#0000FF" d="M556.4,654.2c0,6.1-1,11.6-3.1,16.3c-2.1,4.7-4.9,8.7-8.5,11.9c-3.6,3.2-7.7,5.7-12.3,7.4
		c-4.6,1.7-9.4,2.5-14.5,2.5c-5.1,0-9.9-0.8-14.5-2.5c-4.6-1.7-8.7-4.1-12.3-7.4c-3.6-3.2-6.4-7.2-8.5-11.9
		c-2.1-4.7-3.1-10.1-3.1-16.3v-1.8c0-6,1-11.4,3.1-16.1c2.1-4.7,4.9-8.7,8.5-12c3.6-3.3,7.7-5.7,12.3-7.4c4.6-1.7,9.4-2.5,14.5-2.5
		c5.1,0,9.9,0.8,14.5,2.5c4.6,1.7,8.7,4.2,12.3,7.4c3.6,3.3,6.4,7.3,8.5,12c2.1,4.7,3.1,10.1,3.1,16.1V654.2z M518,674.4
		c2.7,0,5.2-0.4,7.6-1.3s4.5-2.2,6.2-3.9c1.8-1.7,3.2-3.7,4.2-6.2c1-2.4,1.6-5.2,1.6-8.3v-3c0-3.1-0.5-5.8-1.6-8.3
		c-1-2.4-2.5-4.5-4.2-6.2c-1.8-1.7-3.9-3-6.2-3.9c-2.4-0.9-4.9-1.3-7.6-1.3c-2.7,0-5.2,0.4-7.6,1.3c-2.4,0.9-4.5,2.2-6.2,3.9
		c-1.8,1.7-3.2,3.7-4.2,6.2c-1,2.4-1.6,5.2-1.6,8.3v3c0,3.1,0.5,5.8,1.6,8.3c1,2.4,2.5,4.5,4.2,6.2c1.8,1.7,3.9,3,6.2,3.9
		C512.8,674,515.3,674.4,518,674.4z"/>
	<path fill="#0000FF" d="M573,616.5h21.9v-30.3h18.7v30.3h26.6v17.8h-26.6v33.6c0,3,1.3,4.5,4,4.5h19.9v17.8h-31.2
		c-3.4,0-6.1-1.1-8.3-3.3c-2.1-2.2-3.2-5-3.2-8.3v-44.3H573V616.5z"/>
	<path fill="#0000FF" d="M738.4,654.2c0,6.1-1,11.6-3.1,16.3c-2.1,4.7-4.9,8.7-8.5,11.9c-3.6,3.2-7.7,5.7-12.3,7.4
		c-4.6,1.7-9.4,2.5-14.5,2.5c-5.1,0-9.9-0.8-14.5-2.5c-4.6-1.7-8.7-4.1-12.3-7.4c-3.6-3.2-6.4-7.2-8.5-11.9
		c-2.1-4.7-3.1-10.1-3.1-16.3v-1.8c0-6,1-11.4,3.1-16.1c2.1-4.7,4.9-8.7,8.5-12c3.6-3.3,7.7-5.7,12.3-7.4c4.6-1.7,9.4-2.5,14.5-2.5
		c5.1,0,9.9,0.8,14.5,2.5c4.6,1.7,8.7,4.2,12.3,7.4c3.6,3.3,6.4,7.3,8.5,12c2.1,4.7,3.1,10.1,3.1,16.1V654.2z M700,674.4
		c2.7,0,5.2-0.4,7.6-1.3s4.5-2.2,6.2-3.9c1.8-1.7,3.2-3.7,4.2-6.2c1-2.4,1.6-5.2,1.6-8.3v-3c0-3.1-0.5-5.8-1.6-8.3
		c-1-2.4-2.5-4.5-4.2-6.2c-1.8-1.7-3.9-3-6.2-3.9c-2.4-0.9-4.9-1.3-7.6-1.3c-2.7,0-5.2,0.4-7.6,1.3c-2.4,0.9-4.5,2.2-6.2,3.9
		c-1.8,1.7-3.2,3.7-4.2,6.2c-1,2.4-1.6,5.2-1.6,8.3v3c0,3.1,0.5,5.8,1.6,8.3c1,2.4,2.5,4.5,4.2,6.2c1.8,1.7,3.9,3,6.2,3.9
		C694.8,674,697.3,674.4,700,674.4z"/>
	<path fill="#0000FF" d="M780.6,637.3c0,2.4,1.2,4.1,3.7,5.1c2.5,1,7,1.9,13.5,2.6c7.5,0.8,13.7,3,18.4,6.8
		c4.8,3.7,7.1,8.9,7.1,15.5v0.9c0,7.3-2.7,13.2-8,17.5c-5.4,4.4-12.9,6.5-22.6,6.5c-5.8,0-10.7-0.7-14.7-2.2
		c-4.1-1.5-7.4-3.3-10.1-5.6c-2.7-2.2-4.7-4.7-6.2-7.4c-1.4-2.7-2.4-5.4-2.9-8l17.2-5.6c0.8,3.2,2.5,5.9,5,8.3
		c2.5,2.4,6.4,3.6,11.7,3.6c4.7,0,7.9-0.7,9.6-2.2c1.7-1.4,2.6-3,2.6-4.7c0-1-0.2-1.9-0.7-2.8c-0.4-0.8-1.3-1.6-2.5-2.4
		c-1.2-0.7-2.8-1.4-4.8-1.9c-2-0.5-4.6-0.9-7.7-1.2c-8.3-0.7-14.9-2.8-19.8-6.5c-4.9-3.6-7.4-8.9-7.4-16V637c0-3.7,0.8-6.9,2.4-9.7
		c1.6-2.8,3.7-5.1,6.2-7.1c2.6-1.9,5.5-3.4,8.9-4.4c3.4-1,6.8-1.5,10.4-1.5c4.7,0,8.7,0.6,12.1,1.7c3.4,1.1,6.3,2.6,8.7,4.5
		c2.4,1.8,4.3,3.9,5.8,6.1c1.5,2.2,2.6,4.4,3.4,6.5l-16.9,6.8c-0.9-2.7-2.4-4.8-4.6-6.3c-2.2-1.5-5-2.3-8.5-2.3
		c-3.2,0-5.6,0.6-7.1,1.7C781.4,634.2,780.6,635.6,780.6,637.3z"/>
	<path fill="#0000FF" d="M867.1,690.2h-18.7V586.1h18.7v42.2h2.7c1.9-4.5,4.7-7.9,8.3-10.3c3.7-2.4,8.2-3.6,13.5-3.6
		c3.7,0,7,0.6,10.1,1.8c3.1,1.2,5.7,3,8,5.4c2.3,2.4,4.1,5.4,5.4,9.1c1.3,3.7,1.9,8.1,1.9,13.2v46.4h-18.7v-41.9
		c0-5.3-1.3-9.4-3.8-12.4c-2.5-3-6.2-4.5-10.9-4.5c-5.6,0-9.7,1.9-12.4,5.6c-2.7,3.7-4.1,8.7-4.1,14.9V690.2z"/>
	<path fill="#0000FF" d="M1011.3,654.2c0,6.1-1,11.6-3.1,16.3c-2.1,4.7-4.9,8.7-8.5,11.9c-3.6,3.2-7.7,5.7-12.3,7.4
		c-4.6,1.7-9.4,2.5-14.5,2.5c-5.1,0-9.9-0.8-14.5-2.5c-4.6-1.7-8.7-4.1-12.3-7.4c-3.6-3.2-6.4-7.2-8.5-11.9
		c-2.1-4.7-3.1-10.1-3.1-16.3v-1.8c0-6,1-11.4,3.1-16.1c2.1-4.7,4.9-8.7,8.5-12c3.6-3.3,7.7-5.7,12.3-7.4c4.6-1.7,9.4-2.5,14.5-2.5
		c5.1,0,9.9,0.8,14.5,2.5c4.6,1.7,8.7,4.2,12.3,7.4c3.6,3.3,6.4,7.3,8.5,12c2.1,4.7,3.1,10.1,3.1,16.1V654.2z M973,674.4
		c2.7,0,5.2-0.4,7.6-1.3s4.5-2.2,6.2-3.9c1.8-1.7,3.2-3.7,4.2-6.2c1-2.4,1.6-5.2,1.6-8.3v-3c0-3.1-0.5-5.8-1.6-8.3
		c-1-2.4-2.5-4.5-4.2-6.2c-1.8-1.7-3.9-3-6.2-3.9c-2.4-0.9-4.9-1.3-7.6-1.3c-2.7,0-5.2,0.4-7.6,1.3c-2.4,0.9-4.5,2.2-6.2,3.9
		c-1.8,1.7-3.2,3.7-4.2,6.2c-1,2.4-1.6,5.2-1.6,8.3v3c0,3.1,0.5,5.8,1.6,8.3c1,2.4,2.5,4.5,4.2,6.2c1.8,1.7,3.9,3,6.2,3.9
		C967.8,674,970.3,674.4,973,674.4z"/>
	<path fill="#0000FF" d="M1044.9,719.9h-18.7V616.5h18.7v10.7h2.7c2-4.1,4.9-7.2,8.6-9.4c3.8-2.2,8.6-3.3,14.4-3.3
		c4.4,0,8.5,0.8,12.4,2.5c3.9,1.7,7.3,4.1,10.3,7.4c2.9,3.2,5.3,7.2,7,11.8c1.7,4.7,2.6,10,2.6,15.9v2.7c0,6-0.8,11.4-2.5,16.1
		c-1.7,4.7-4,8.6-6.8,11.8c-2.9,3.2-6.3,5.6-10.2,7.3c-3.9,1.6-8.2,2.5-12.7,2.5c-3.4,0-6.3-0.3-8.8-1c-2.5-0.7-4.6-1.6-6.5-2.8
		c-1.8-1.2-3.4-2.6-4.6-4.1c-1.2-1.5-2.3-3.1-3.2-4.8h-2.7V719.9z M1064.5,674.4c5.8,0,10.6-1.8,14.2-5.4c3.6-3.6,5.4-8.5,5.4-14.8
		v-1.8c0-6.2-1.8-11.2-5.4-14.8c-3.6-3.6-8.4-5.4-14.2-5.4c-5.8,0-10.6,1.9-14.2,5.6c-3.6,3.7-5.4,8.6-5.4,14.6v1.8
		c0,6,1.8,10.9,5.4,14.6C1054,672.6,1058.7,674.4,1064.5,674.4z"/>
</g>
</svg>
